<svg enable-background="new 0 0 512 512" height="512" viewBox="0 0 512 512" width="512" xmlns="http://www.w3.org/2000/svg"><g id="_x33_8_x2C__Heart_x2C__donation_x2C__hand_heart_x2C__love_x2C__pray_x2C__caregiver_x2C__sympathy"><g><g><path d="m346.49 29.206c25.5 24.78 26.08 65.53 1.31 91.03l-91.8 94.47-91.79-94.47c-24.78-25.5-24.19-66.25 1.31-91.03 25.184-24.479 65.563-24.306 90.48.77 24.669-24.826 65.035-25.492 90.49-.77z" fill="#ff6c6c"/><path d="m421 431.006v70h-140v-70z" fill="#00b9ff"/><path d="m231 431.006v70h-140v-70z" fill="#00b9ff"/><path d="m431 248.496v-152.49c0-19.32 15.661-35 35-35 19.33 0 35 15.67 35 35v171.8c0 14.93-5.56 29.32-15.6 40.36l-84.4 92.84v30h-100v-106.44c0-15.14 5.73-29.73 16.03-40.83l54.44-58.62c21.25-22.88 59.53-7.85 59.53 23.38z" fill="#fdd1a3"/><path d="m81 248.496c0-31.23 38.29-46.26 59.53-23.38l54.44 58.62c10.31 11.1 16.03 25.69 16.03 40.83v106.44h-100v-30l-84.39-92.84c-10.04-11.04-15.61-25.43-15.61-40.36v-171.8c0-19.32 15.661-35 35-35 19.33 0 35 15.67 35 35z" fill="#fdd1a3"/><path d="m111 441.006c-5.523 0-10-4.478-10-10v-26.135l-81.79-89.979c-11.742-12.911-18.21-29.634-18.21-47.086v-171.8c0-24.857 20.123-45 45-45 24.813 0 45 20.187 45 45v155c0 5.522-4.477 10-10 10s-10-4.478-10-10v-155c0-13.785-11.215-25-25-25-13.784 0-25 11.15-25 25v171.8c0 12.464 4.62 24.408 13.008 33.632l84.392 92.842c1.673 1.841 2.6 4.239 2.6 6.727v30c0 5.522-4.477 9.999-10 9.999z"/><path d="m211 441.006c-5.523 0-10-4.478-10-10v-106.44c0-12.667-4.744-24.75-13.357-34.023l-54.441-58.621c-15.055-16.216-42.202-5.56-42.202 16.575 0 6.359 2.497 12.575 7.142 17.22l39.93 39.939c3.905 3.906 3.904 10.237-.001 14.143-3.907 3.902-10.238 3.902-14.142-.002l-39.93-39.939c-8.348-8.35-12.999-19.626-12.999-31.361 0-40.326 49.403-59.76 76.858-30.184l54.439 58.619c12.061 12.983 18.703 29.9 18.703 47.634v106.44c0 5.523-4.477 10-10 10z"/><path d="m231 511.006h-140c-5.523 0-10-4.478-10-10v-70c0-5.522 4.477-10 10-10h140c5.523 0 10 4.478 10 10v70c0 5.523-4.477 10-10 10zm-130-20h120v-50h-120z"/><path d="m401 441.006c-5.522 0-10-4.478-10-10v-30c0-2.487.927-4.886 2.601-6.727l84.399-92.839c8.384-9.219 13-21.163 13-33.634v-171.8c0-13.785-11.215-25-25-25-13.783 0-25 11.15-25 25v155c0 5.522-4.478 10-10 10s-10-4.478-10-10v-155c0-24.857 20.123-45 45-45 24.814 0 45 20.187 45 45v171.8c0 17.458-6.465 34.182-18.202 47.089l-81.798 89.978v26.134c0 5.522-4.478 9.999-10 9.999z"/><path d="m301 441.006c-5.522 0-10-4.478-10-10v-106.44c0-17.721 6.641-34.637 18.699-47.631l54.443-58.623c12.692-13.667 31.361-17.921 48.719-11.104 30.945 12.153 36.972 50.822 15.149 72.65l-39.94 39.939c-3.906 3.904-10.236 3.904-14.143 0-3.905-3.905-3.905-10.237 0-14.143l39.939-39.939c4.455-4.455 7.132-10.583 7.132-17.219 0-22.132-27.136-32.795-42.203-16.574l-54.44 58.619c-8.611 9.282-13.355 21.366-13.355 34.025v106.44c0 5.523-4.478 10-10 10z"/><path d="m421 511.006h-140c-5.522 0-10-4.478-10-10v-70c0-5.522 4.478-10 10-10h140c5.522 0 10 4.478 10 10v70c0 5.523-4.478 10-10 10zm-130-20h120v-50h-120z"/><path d="m248.828 221.675-91.79-94.47c-28.579-29.408-27.9-76.588 1.512-105.171 27.032-26.273 68.777-27.784 97.45-5.403 28.72-22.419 70.447-20.831 97.457 5.401 29.408 28.578 30.088 75.758 1.516 105.172l-91.801 94.471c-3.962 4.078-10.459 3.998-14.344 0zm-76.338-185.298c-21.505 20.897-22.002 55.39-1.108 76.891l84.618 87.089 84.628-87.089c20.889-21.504 20.393-55.998-1.106-76.89-21.25-20.638-55.33-20.588-76.428.646-3.903 3.927-10.272 3.94-14.187 0-21.201-21.335-55.289-21.184-76.417-.647z"/></g></g></g></svg>