<svg id="Layer_1" enable-background="new 0 0 68 68" viewBox="0 0 68 68" xmlns="http://www.w3.org/2000/svg"><g><g><g><path d="m58.250576 19.9374828v36.8198223h-53.4999986v-36.8198223l26.7500005-15.7602548z" fill="#d1dafe"/><g fill="#4269c4"><path d="m61.1749001 21.7528725c-2.7126656-1.0438576-5.3286209-2.260643-7.9550896-3.4553509-2.5944023-1.2488461-5.1885452-2.4971666-7.7395859-3.8322124-2.5513039-1.3129702-5.0810585-2.6800785-7.5997734-4.068737-2.1421204-1.1841955-4.2626877-2.4004545-6.3724804-3.6382627-4.5964489 2.6911163-9.2575455 5.2634449-13.9938049 7.7069998-2.5513048 1.324008-5.1454468 2.572855-7.7395878 3.821701-2.6159544 1.2052193-5.2316461 2.4220047-7.9550872 3.4658623 2.2390928-1.8622303 4.5641227-3.5631008 6.889153-5.2744827 2.3468428-1.668807 4.7041969-3.3260508 7.0938768-4.9191713 4.7901344-3.1862392 9.6664696-6.2221546 14.6074524-9.1392822.699585-.4199613 1.528471-.3873737 2.1849556 0 2.4651031 1.4533079 4.9302101 2.9386778 7.3629875 4.4566355 2.4327812 1.5284705 4.8547859 3.0784898 7.2444649 4.6716104s4.7472992 3.2614012 7.0938759 4.9191704c2.3250313 1.7119076 4.6503258 3.4127762 6.8786431 5.2855198z"/><path d="m50.0706444 24.4076977v10.8095684h-37.1401358v-10.8095684c0-.5200195.420166-.9404297.9401855-.9404297h35.2600089c.5100097 0 .9399414.4204101.9399414.9404297z"/><path d="m59.8206444 57.5575981v2.5600586c0 .4399414-.3598633.7998047-.8000488.7998047h-55.0400379c-.4399414 0-.8000488-.3598633-.8000488-.7998047v-2.5600586c0-.4399414.3601074-.800293.8000488-.800293h55.0400391c.4401843 0 .8000476.3603516.8000476.800293z"/></g></g></g><path d="m12.935 35.217h37.132v21.542h-37.132z" fill="#51504f"/><g fill="#255299"><path d="m12.937 26.438h37.131v1.243h-37.131z"/><path d="m12.937 31.001h37.131v1.243h-37.131z"/></g><g><g><g><g><path d="m25.8257866 47.1709671v9.586132h-8.4946976c-.6050549 0-1.0955505-.4904938-1.0955505-1.0955467v-7.3950348c0-.6050568.4904957-1.0955505 1.0955505-1.0955505z" fill="#fbad3e"/><g fill="#fa990e"><path d="m28.3297482 48.2088432v7.5111809c0 .5740967-.4606476 1.0347443-1.0349064 1.0347443h-1.4688206v-9.5809937h1.4688206c.5742588 0 1.0349064.4609719 1.0349064 1.0350685z"/><path d="m22.6992664 47.1709671v2.3385124c0 .2697334-.2949371.4256897-.5182762.2781715l-.7753544-.5225983c-.1136742-.0757141-.2611942-.0757141-.3749733.0043221l-.7289581.5055199c-.21912.1518402-.5224934-.0041161-.5224934-.2738495v-2.3300781z"/><path d="m21.6458454 54.325798c-.3075905.1306458-.6151829.2022476-.9227734.248539-.3075905.0506134-.615181.0674858-.9186573.0674858-.3075905 0-.615181-.0211906-.9227715-.0674858-.3075905-.0462914-.6151829-.1178932-.9227734-.248539.3075905-.1306496.6151829-.1981354.9227734-.2444267.3075905-.0506134.615181-.0674858.9227715-.0716019.3034763 0 .6110668.0209885.9186573.0716019.3075905.0462914.6151829.1137772.9227734.2444267z"/><path d="m19.5852947 55.2907486c.181263.0462914.3624229.1178894.5435829.248539-.18116.1306496-.3623199.1981354-.5435829.2444267-.18116.0506134-.362318.0716019-.543478.0716019-.18116-.0041161-.3582039-.0209885-.5393639-.0716019-.181263-.0462914-.3624229-.1137772-.5435829-.2444267.18116-.1306496.3623199-.2022476.5435829-.248539.18116-.0462952.3582039-.0674858.5393639-.0674858s.3623181.0168686.543478.0674858z"/></g></g></g><g><g><path d="m37.9220543 47.1709671v9.586132h-8.4946976c-.6050549 0-1.0955505-.4904938-1.0955505-1.0955467v-7.3950348c0-.6050568.4904957-1.0955505 1.0955505-1.0955505z" fill="#fbad3e"/><g fill="#fa990e"><path d="m40.4276695 48.2088432v7.5111809c0 .5740967-.4606476 1.0347443-1.0347443 1.0347443h-1.4689827v-9.5809937h1.4689827c.5740967 0 1.0347443.4609719 1.0347443 1.0350685z"/><path d="m34.7955322 47.1709671v2.3385124c0 .2697334-.2949371.4256897-.5182724.2781715l-.7753563-.5225983c-.1136742-.0757141-.2611961-.0757141-.3749733.0043221l-.7289581.5055199c-.21912.1518402-.5224934-.0041161-.5224934-.2738495v-2.3300781z"/><path d="m33.7421112 54.325798c-.3075905.1306458-.615181.2022476-.9227715.248539-.3075905.0506134-.615181.0674858-.9186573.0674858-.3075905 0-.615181-.0211906-.9227715-.0674858-.3075905-.0462914-.6151829-.1178932-.9227734-.248539.3075905-.1306496.6151829-.1981354.9227734-.2444267.3075905-.0506134.615181-.0674858.9227715-.0716019.3034763 0 .6110668.0209885.9186573.0716019.3075905.0462914.615181.1137772.9227715.2444267z"/><path d="m31.6815624 55.2907486c.181263.0462914.362421.1178894.543581.248539-.18116.1306496-.362318.1981354-.543581.2444267-.18116.0506134-.362318.0716019-.543478.0716019-.18116-.0041161-.3582058-.0209885-.5393639-.0716019-.181263-.0462914-.3624229-.1137772-.5435829-.2444267.18116-.1306496.3623199-.2022476.5435829-.248539.1811581-.0462952.3582039-.0674858.5393639-.0674858s.3623181.0168686.543478.0674858z"/></g></g></g><g><g><path d="m31.8739204 37.5862045v9.5861359h-8.4946976c-.6050549 0-1.0955505-.4904938-1.0955505-1.0955505v-7.3950348c0-.6050529.4904957-1.0955505 1.0955505-1.0955505h8.4946976z" fill="#fbad3e"/><g fill="#fa990e"><path d="m34.3787918 38.6213303v7.5177002c0 .5675774-.4608116 1.0347443-1.0349083 1.0347443h-1.4688206v-9.587513h1.4688206c.5740967-.0000001 1.0349083.4674949 1.0349083 1.0350685z"/><path d="m28.7474003 37.5862045v2.3385162c0 .2697334-.2949371.4256859-.5182762.2781677l-.7753544-.5225945c-.1136742-.0757179-.2611942-.0757179-.3749733.0043182l-.7289581.5055199c-.21912.1518402-.5224934-.0041161-.5224934-.2738495v-2.3300781h2.9200554z"/><path d="m27.6939793 44.7410355c-.3075924.1306496-.6151829.2022476-.9227734.2485428-.3075905.0506134-.615181.067482-.9186573.067482-.3075905 0-.615181-.0211906-.9227715-.067482-.3075905-.0462952-.6151829-.1178932-.9227734-.2485428.3075905-.1306496.6151829-.1981354.9227734-.2444267.3075905-.0506134.615181-.0674858.9227715-.0716019.3034763 0 .6110668.0209885.9186573.0716019.3075905.0462913.615181.1137771.9227734.2444267z"/><path d="m25.6334286 45.705986c.181263.0462914.3624229.1178932.5435829.2485428-.18116.1306458-.3623199.1981316-.5435829.2444229-.18116.0506172-.362318.0716019-.543478.0716019-.18116-.0041161-.3582039-.0209846-.5393639-.0716019-.181263-.0462914-.3624229-.1137772-.5435829-.2444229.18116-.1306496.3623199-.2022514.5435829-.2485428.18116-.0462952.3582039-.0674858.5393639-.0674858s.362318.0168724.543478.0674858z"/></g></g></g></g></g><path d="m42.7906151 44.6474419v17.7099609h-9.7900391c-1.0300274 0-1.8698711-.8300781-1.8698711-1.8598633v-7.3901367c0-.2700195.0698242-.5297852.1699219-.7797852l3.0100079-6.5800781c.3000488-.6699219.9699707-1.1000977 1.6999512-1.1000977h6.7800292z" fill="#aec46e"/><path d="m41.5352783 46.6367722v5.7473564c0 .3751678-.3033905.6784248-.6784248.6784248h-7.3359604c-.4963608 0-.8218384-.5130615-.617691-.9598694l2.5316353-5.5485954c.1655006-.3641243.5294914-.5957451.9267426-.5957451h4.4952736c.3750342 0 .6784247.3032608.6784247.6784287z" fill="#617f4d"/><path d="m66.1707458 43.5473442v15.0800781c0 2.0498047-1.6801758 3.7299805-3.7299843 3.7299805h-19.6501464v-18.7998047c0-.7900391.6398926-1.4199219 1.420166-1.4199219h20.5498085c.7800293 0 1.4101562.6298829 1.4101562 1.409668z" fill="#b53016"/><path d="m66.1805115 56.4374809v3.4399414c0 1.3701172-1.1098633 2.4799805-2.4799843 2.4799805h-20.9099121v-5.9199219z" fill="#aec46e"/><path d="m42.791 56.437h1.01v5.92h-1.01z" fill="#617f4d"/><path d="m37.7305565 54.6274223c-.3098145.3999023-.6098633.4902344-.9099121.5-.3100586-.0097656-.6098633-.1000977-.9199219-.5.3100586-.3896484.6098633-.4799805.9199219-.4897461.3000488.0097657.6000976.1000977.9099121.4897461z" fill="#51504f"/><path d="m32.8397446 56.0494652v2.870079c0 .4277344-.3452034.7782211-.772934.7782211h-.9325829v-4.4212379h.9325829c.4277306 0 .772934.3452034.772934.7729378z" fill="#b53016"/><circle cx="36.965" cy="62.362" fill="#51504f" r="3.521"/><circle cx="36.965" cy="62.362" fill="#fff" r="1.46"/><circle cx="60.409" cy="62.362" fill="#51504f" r="3.521"/><path d="m60.4092102 63.8217316c-.8048935 0-1.4598274-.6549339-1.4598274-1.4599495s.6549339-1.4599495 1.4598274-1.4599495c.8051414 0 1.4600754.6549339 1.4600754 1.4599495s-.6549339 1.4599495-1.4600754 1.4599495z" fill="#fff"/></g></svg>