<?xml version="1.0" encoding="iso-8859-1"?>
<!-- Generator: Adobe Illustrator 19.0.0, SVG Export Plug-In . SVG Version: 6.00 Build 0)  -->
<svg version="1.1" id="Capa_1" xmlns="http://www.w3.org/2000/svg" xmlns:xlink="http://www.w3.org/1999/xlink" x="0px" y="0px"
	 viewBox="0 0 512 512" style="enable-background:new 0 0 512 512;" xml:space="preserve">
<path style="fill:#FE9923;" d="M435.996,160.196v231.796l-59.999,89.998L273.7,379.691c-11.4-11.4-17.701-26.399-17.701-42.598
	V209.996c0-16.5,13.5-29.999,29.999-29.999c16.3,0,29.999,13.348,29.999,29.999v76.998c0,8.399,6.599,15,15,15
	c8.401,0,15-6.601,15-15V157.197c-3.559-7.121-54.95-109.491-57.598-116.998c-4.501-11.999-0.3-26.698,9.6-34.198
	c11.522-8.812,29.4-7.374,39.597,3.898l86.398,113.999C431.795,134.096,435.996,146.996,435.996,160.196z"/>
<path style="fill:#FEA832;" d="M76.004,160.196v231.796l59.999,89.998L238.3,379.691c11.4-11.4,17.701-26.399,17.701-42.598V209.996
	c0-16.5-13.5-29.999-29.999-29.999c-16.3,0-29.999,13.348-29.999,29.999v76.998c0,8.399-6.599,15-15,15s-15-6.601-15-15V157.197
	c3.559-7.121,54.95-109.491,57.598-116.998C228.101,28.2,223.9,13.5,214,6c-11.522-8.812-29.4-7.374-39.597,3.898l-86.399,114
	C80.204,134.096,76.004,146.996,76.004,160.196z"/>
<path style="fill:#FD4E26;" d="M121.003,511.989c-3.838,0-7.676-1.465-10.605-4.395L20.4,417.596
	c-5.859-5.859-5.859-15.352,0-21.211L50.4,366.386c5.859-5.859,15.352-5.859,21.211,0l89.998,89.998
	c5.859,5.859,5.859,15.352,0,21.211l-29.999,29.999C128.678,510.524,124.841,511.989,121.003,511.989z"/>
<path style="fill:#FD3018;" d="M390.997,511.989c-3.838,0-7.676-1.465-10.605-4.395l-29.999-29.999
	c-5.859-5.859-5.859-15.352,0-21.211l89.998-89.998c5.859-5.859,15.352-5.859,21.211,0l29.999,29.999
	c5.859,5.859,5.859,15.352,0,21.211l-89.998,89.998C398.672,510.524,394.835,511.989,390.997,511.989z"/>
<g>
	<path style="fill:#19DEC1;" d="M69.295,58.417L8.296,28.418C0.885,24.712-2.118,15.703,1.588,8.291
		C5.294,0.864,14.316-2.08,21.714,1.582l60.999,29.999c7.412,3.706,10.415,12.715,6.709,20.127
		C85.736,59.059,76.781,62.135,69.295,58.417z"/>
	<path style="fill:#19DEC1;" d="M1.588,141.706c-3.706-7.412-0.703-16.421,6.709-20.127L69.295,91.58
		c7.412-3.662,16.406-0.703,20.127,6.709c3.706,7.412,0.703,16.421-6.709,20.127l-60.999,29.999
		C14.227,152.133,5.273,149.057,1.588,141.706z"/>
</g>
<g>
	<path style="fill:#17CEB4;" d="M422.579,51.708c-3.706-7.412-0.703-16.421,6.709-20.127l60.999-29.999
		c7.412-3.662,16.421-0.718,20.127,6.709c3.706,7.412,0.703,16.421-6.709,20.127l-60.999,29.999
		C435.218,62.135,426.264,59.059,422.579,51.708z"/>
	<path style="fill:#17CEB4;" d="M490.286,148.415l-60.999-29.999c-7.412-3.706-10.415-12.715-6.709-20.127
		c3.735-7.412,12.715-10.371,20.127-6.709l60.999,29.999c7.412,3.706,10.415,12.715,6.709,20.127
		C506.727,149.057,497.772,152.133,490.286,148.415z"/>
</g>
<g>
</g>
<g>
</g>
<g>
</g>
<g>
</g>
<g>
</g>
<g>
</g>
<g>
</g>
<g>
</g>
<g>
</g>
<g>
</g>
<g>
</g>
<g>
</g>
<g>
</g>
<g>
</g>
<g>
</g>
</svg>
