<svg id="Flat" height="512" viewBox="0 0 64 64" width="512" xmlns="http://www.w3.org/2000/svg"><path d="m43 14h-22a1 1 0 0 0 0 2h10v15a1 1 0 0 0 2 0v-15h10a1 1 0 0 0 0-2z" fill="#464650"/><path d="m4 59h20v-27h-8.886a3 3 0 0 0 -2.825 1.991l-4.289 12.009h-1a3 3 0 0 0 -3 3z" fill="#788cff"/><path d="m14.575 35.991-3.575 10.009h-2a3 3 0 0 0 -3 3v10h18v-25h-6.6a3 3 0 0 0 -2.825 1.991z" fill="#6478ff"/><path d="m11.214 37h7.786v9h-11z" fill="#fff5f5"/><path d="m11 46h8v-9h-4.786z" fill="#f4e9e9"/><path d="m6 50.5h2a0 0 0 0 1 0 0v4a0 0 0 0 1 0 0h-2a2 2 0 0 1 -2-2 2 2 0 0 1 2-2z" fill="#ffe678" transform="matrix(-1 0 0 -1 12 105)"/><path d="m24 30h32v29h-32z" fill="#fa3c64"/><path d="m27 32h29v27h-29z" fill="#f01e60"/><path d="m32 35.5h16v15h-16z" fill="#ffe678" transform="matrix(-1 0 0 -1 80 86)"/><path d="m35 37.5h13v13h-13z" fill="#ffd248" transform="matrix(-1 0 0 -1 83 88)"/><path d="m19 48.5h-2a1 1 0 0 0 0 2h2a1 1 0 0 0 0-2z" fill="#464650"/><path d="m44 45.5h-2a1 1 0 0 0 0 2h2a1 1 0 0 0 0-2z" fill="#f4e9e9"/><path d="m37.5 41.5 2.5-2 2.5 2v-6h-5z" fill="#788cff"/><path d="m37.5 37.5v4l2.5-2 2.5 2v-4z" fill="#6478ff"/><circle cx="14" cy="59" fill="#5a5a6a" r="4"/><path d="m12 61a3.961 3.961 0 0 0 .36 1.64 3.985 3.985 0 0 0 5.28-5.28 3.985 3.985 0 0 0 -5.64 3.64z" fill="#464650"/><circle cx="46" cy="59" fill="#5a5a6a" r="4"/><path d="m44 61a3.961 3.961 0 0 0 .36 1.64 3.985 3.985 0 0 0 5.28-5.28 3.985 3.985 0 0 0 -5.64 3.64z" fill="#464650"/><path d="m43.5 16h18v10h-18z" fill="#ffe678" transform="matrix(-1 0 0 -1 105 42)"/><path d="m43.5 16h18v2h-18z" fill="#ffd248" transform="matrix(-1 0 0 -1 105 34)"/><path d="m46.5 16h15v10h-15z" fill="#ffd248" transform="matrix(-1 0 0 -1 108 42)"/><path d="m46.5 16h15v2h-15z" fill="#fcbe14" transform="matrix(-1 0 0 -1 108 34)"/><path d="m50 21h5v5h-5z" fill="#a0f0ff" transform="matrix(-1 0 0 -1 105 47)"/><path d="m55 20h-5a1 1 0 0 0 -1 1v5h2v-4h3v4h2v-5a1 1 0 0 0 -1-1z" fill="#464650"/><path d="m59.5 6 3.5 6h-7l-1.167-6z" fill="#fa3c64"/><path d="m45.5 6h4.667l-1.167 6h-7z" fill="#fa3c64"/><path d="m54.833 6 1.167 6h-7l1.167-6z" fill="#ff648c"/><path d="m42 12h7v4h-7z" fill="#f01e60" transform="matrix(-1 0 0 -1 91 28)"/><path d="m49 12h7v4h-7z" fill="#fa3c64" transform="matrix(-1 0 0 -1 105 28)"/><path d="m56 12h7v4h-7z" fill="#f01e60" transform="matrix(-1 0 0 -1 119 28)"/><path d="m45.5 1h14v5h-14z" fill="#fff5f5"/><path d="m48.5 3h11v3h-11z" fill="#f4e9e9"/><path d="m2.5 16h18v10h-18z" fill="#ffe678" transform="matrix(-1 0 0 -1 23 42)"/><path d="m2.5 16h18v2h-18z" fill="#ffd248" transform="matrix(-1 0 0 -1 23 34)"/><path d="m5.5 16h15v10h-15z" fill="#ffd248" transform="matrix(-1 0 0 -1 26 42)"/><path d="m5.5 16h15v2h-15z" fill="#fcbe14" transform="matrix(-1 0 0 -1 26 34)"/><path d="m9 21h5v5h-5z" fill="#a0f0ff" transform="matrix(-1 0 0 -1 23 47)"/><path d="m14 20h-5a1 1 0 0 0 -1 1v5h2v-4h3v4h2v-5a1 1 0 0 0 -1-1z" fill="#464650"/><path d="m18.5 6 3.5 6h-7l-1.167-6z" fill="#fa3c64"/><path d="m4.5 6h4.667l-1.167 6h-7z" fill="#fa3c64"/><path d="m13.833 6 1.167 6h-7l1.167-6z" fill="#ff648c"/><path d="m1 12h7v4h-7z" fill="#f01e60" transform="matrix(-1 0 0 -1 9 28)"/><path d="m8 12h7v4h-7z" fill="#fa3c64" transform="matrix(-1 0 0 -1 23 28)"/><path d="m15 12h7v4h-7z" fill="#f01e60" transform="matrix(-1 0 0 -1 37 28)"/><path d="m4.5 1h14v5h-14z" fill="#fff5f5"/><path d="m7.5 3h11v3h-11z" fill="#f4e9e9"/><path d="m8 52.5a2 2 0 0 0 -2-2v4a2 2 0 0 0 2-2z" fill="#ffd248"/></svg>