<?xml version="1.0" encoding="utf-8"?>
<!-- Generator: Adobe Illustrator 16.0.2, SVG Export Plug-In . SVG Version: 6.00 Build 0)  -->
<!DOCTYPE svg PUBLIC "-//W3C//DTD SVG 1.1//EN" "http://www.w3.org/Graphics/SVG/1.1/DTD/svg11.dtd">
<svg version="1.1" id="Layer_1" xmlns="http://www.w3.org/2000/svg" xmlns:xlink="http://www.w3.org/1999/xlink" x="0px" y="0px"
	 width="1080px" height="1080px" viewBox="0 0 1080 1080" enable-background="new 0 0 1080 1080" xml:space="preserve">
<g>
	<defs>
		<rect id="SVGID_1_" x="134.667" y="77.391" width="805.333" height="925"/>
	</defs>
	<clipPath id="SVGID_2_">
		<use xlink:href="#SVGID_1_"  overflow="visible"/>
	</clipPath>
	<g clip-path="url(#SVGID_2_)">
		<path fill="#FFFFFF" d="M496.531,77.391c-212.729,0-361.328,130.755-361.328,317.969c0,103.995,25.125,210.359,72.604,307.583
			c8.13,16.709,11.406,35.511,9.427,54.256l-20.776,197.317c-1.297,12.192,2.713,24.391,10.896,33.536
			c8.188,9.146,19.99,14.339,32.24,14.339h382.953c12.474,0,24.386-5.417,32.573-14.792c8.244-9.369,12.025-21.849,10.391-34.213
			l-7.678-58.266l77.854,8.697h0.058l41.891,4.631c20.322,2.255,40.875-4.234,56.172-17.953
			c15.302-13.719,24.052-33.313,24.052-53.865v-131.15c0-7.396,5.531-13.547,12.875-14.339l43.188-4.854
			c8.75-0.958,16.484-5.76,21.172-13.156c4.745-7.396,5.87-16.369,3.104-24.672l-78.308-235.031
			c-1.297-3.838-2.031-8.13-2.146-12.646C853.12,213.396,701.192,77.391,496.531,77.391z M510.87,106.865
			c9.828,0.338,19.536,0.958,29.021,1.974v268.683c-17.953-7.058-37.433-11.068-57.813-11.068s-39.859,4.01-57.813,11.068V111.604
			c9.484-1.411,19.255-2.651,29.302-3.5c0.901,7.115,6.719,12.646,14.058,12.646h28.906
			C504.323,120.75,510.531,114.599,510.87,106.865z M568.797,112.849c150.745,27.438,256.375,140.349,260.042,288.609
			c0.172,7.453,1.411,14.568,3.557,21.115l78.365,234.974l-43.188,4.802c-22.021,2.484-38.62,21-38.62,43.131v131.15
			c0,12.308-5.25,24.109-14.453,32.297c-9.146,8.188-21.339,12.136-33.646,10.839l-156.5-17.391l-39.521-4.401
			c-7.734-0.906-15.078,4.854-15.922,12.761c-0.906,7.958,4.797,15.073,12.761,15.974l46.521,5.141l8.693,65.318
			c0.563,4.125-0.678,8.244-3.5,11.406c-2.766,3.161-6.604,4.911-10.839,4.911H239.594c-4.12,0-7.958-1.692-10.729-4.739
			c-2.823-3.109-4.063-7.115-3.667-11.234l20.776-197.266c2.542-24.162-1.693-48.386-12.25-69.948
			c-45.505-93.386-69.615-195.344-69.615-294.938c0-120.703,72.38-242.26,231.25-278.333V392.37
			c-43.474,28.396-72.266,77.401-72.266,133.068c0,87.677,71.308,158.984,158.984,158.984c10.896,0,21.567-1.13,31.844-3.219
			l14.958,44.942c8.922,26.646,32.693,45.844,60.636,49.006l82.089,9.088c5.989,25.573,28.797,44.714,56.177,44.714
			c31.901,0,57.813-25.911,57.813-57.813c0-31.896-25.911-57.813-57.813-57.813c-26.364,0-48.386,17.786-55.328,41.948
			l-79.719-8.865c-16.766-1.859-31.052-13.38-36.359-29.411l-14.792-44.266c58.266-23.599,99.479-80.677,99.479-147.297
			c0-55.667-28.792-104.672-72.266-133.068V112.849z M467.625,164.109c-8.016,0-14.453,6.495-14.453,14.453
			c0,7.963,6.438,14.453,14.453,14.453h28.906c8.016,0,14.453-6.49,14.453-14.453c0-7.958-6.438-14.453-14.453-14.453H467.625z
			 M467.625,236.375c-8.016,0-14.453,6.495-14.453,14.453c0,7.963,6.438,14.453,14.453,14.453h28.906
			c8.016,0,14.453-6.49,14.453-14.453c0-7.958-6.438-14.453-14.453-14.453H467.625z M467.625,308.641
			c-8.016,0-14.453,6.495-14.453,14.453c0,7.963,6.438,14.453,14.453,14.453h28.906c8.016,0,14.453-6.49,14.453-14.453
			c0-7.958-6.438-14.453-14.453-14.453H467.625z M482.078,395.359c71.761,0,130.078,58.38,130.078,130.078
			c0,71.703-58.317,130.078-130.078,130.078C410.323,655.516,352,597.141,352,525.438C352,453.739,410.323,395.359,482.078,395.359z
			 M482.078,453.172c-39.859,0-72.266,32.406-72.266,72.266s32.406,72.266,72.266,72.266s72.266-32.406,72.266-72.266
			S521.938,453.172,482.078,453.172z M482.078,482.078c23.88,0,43.359,19.479,43.359,43.359s-19.479,43.359-43.359,43.359
			s-43.359-19.479-43.359-43.359S458.198,482.078,482.078,482.078z M727.781,742.234c15.922,0,28.906,12.984,28.906,28.906
			s-12.984,28.906-28.906,28.906s-28.906-12.984-28.906-28.906S711.859,742.234,727.781,742.234z"/>
	</g>
</g>
</svg>
