<?xml version="1.0" encoding="utf-8"?>
<!-- Generator: Adobe Illustrator 16.0.2, SVG Export Plug-In . SVG Version: 6.00 Build 0)  -->
<!DOCTYPE svg PUBLIC "-//W3C//DTD SVG 1.1//EN" "http://www.w3.org/Graphics/SVG/1.1/DTD/svg11.dtd">
<svg version="1.1" id="Layer_1" xmlns="http://www.w3.org/2000/svg" xmlns:xlink="http://www.w3.org/1999/xlink" x="0px" y="0px"
	 width="1080px" height="1080px" viewBox="0 0 1080 1080" enable-background="new 0 0 1080 1080" xml:space="preserve">
<g display="none">
	<defs>
		<rect id="SVGID_1_" x="63.698" y="63.698" width="953" height="924.302"/>
	</defs>
	<clipPath id="SVGID_2_" display="inline">
		<use xlink:href="#SVGID_1_"  overflow="visible"/>
	</clipPath>
	<g display="inline" clip-path="url(#SVGID_2_)">
		<path fill="#FFFFFF" d="M584.87,63.698c-3.781,0-7.62,1.453-10.526,4.365L455.219,187.188c-5.817,5.818-5.817,15.24,0,21.057
			c5.813,5.813,15.239,5.813,21.058,0l93.703-93.708v187.411H223.307l-4.188-52.875c-3.255-40.891-30.364-74.974-66.891-89.052
			c-3.724-20.88-21.932-36.761-43.859-36.761c-24.604,0-44.672,20.068-44.672,44.672c0,24.604,20.068,44.672,44.672,44.672
			c16.401,0,30.594-8.958,38.391-22.219c23.38,11.109,40.484,33.854,42.636,61.016l41.588,525.068
			c5.818,73.875,61.25,133.729,131.688,147.688c5.703,35.479,36.239,62.761,73.292,62.761c35.947,0,66.021-25.651,72.942-59.563
			h151.927c6.922,33.911,36.995,59.563,72.943,59.563c41.067,0,74.453-33.386,74.453-74.453c0-41.063-33.386-74.453-74.453-74.453
			c-35.948,0-66.021,25.65-72.943,59.563H508.906c-6.922-33.912-36.995-59.563-72.942-59.563c-34.609,0-63.516,23.849-71.834,55.9
			c-44.38-10.354-80.911-42.927-96.151-85.682h575.735c20.938,0,39.26-14.834,43.682-35.308l81.781-381.63h2.85
			c24.604,0,44.672-20.067,44.672-44.672c0-24.604-20.068-44.672-44.672-44.672H599.761V114.537l93.708,93.708
			c2.906,2.906,6.688,4.359,10.526,4.359c3.838,0,7.619-1.453,10.525-4.359c5.818-5.817,5.818-15.239,0-21.057L595.401,68.063
			C592.489,65.151,588.651,63.698,584.87,63.698z M108.37,153.042c8.203,0,14.891,6.688,14.891,14.891s-6.688,14.891-14.891,14.891
			s-14.891-6.688-14.891-14.891S100.167,153.042,108.37,153.042z M225.635,331.729h344.344v342.485
			c0,8.26,6.688,14.891,14.891,14.891s14.891-6.631,14.891-14.891V331.729h372.266c8.203,0,14.891,6.688,14.891,14.891
			s-6.688,14.891-14.891,14.891H660.255c-8.203,0-14.891,6.63-14.891,14.891c0,8.261,6.688,14.891,14.891,14.891h278.443
			l-80.443,375.349c-1.458,6.864-7.563,11.808-14.541,11.808H261.172c-0.172-1.453-0.406-2.85-0.521-4.303l-30.307-382.854h280.073
			c8.203,0,14.891-6.63,14.891-14.891c0-8.26-6.688-14.891-14.891-14.891H227.958L225.635,331.729z M287.057,421.073
			c-8.203,0-14.891,6.63-14.891,14.891v29.781c0,8.26,6.688,14.891,14.891,14.891s14.891-6.631,14.891-14.891v-29.781
			C301.948,427.703,295.26,421.073,287.057,421.073z M361.511,421.073c-8.203,0-14.891,6.63-14.891,14.891v29.781
			c0,8.26,6.688,14.891,14.891,14.891s14.891-6.631,14.891-14.891v-29.781C376.401,427.703,369.714,421.073,361.511,421.073z
			 M435.964,421.073c-8.203,0-14.891,6.63-14.891,14.891v29.781c0,8.26,6.688,14.891,14.891,14.891s14.891-6.631,14.891-14.891
			v-29.781C450.854,427.703,444.167,421.073,435.964,421.073z M510.417,421.073c-8.203,0-14.891,6.63-14.891,14.891v29.781
			c0,8.26,6.688,14.891,14.891,14.891s14.891-6.631,14.891-14.891v-29.781C525.308,427.703,518.62,421.073,510.417,421.073z
			 M659.323,421.073c-8.203,0-14.891,6.63-14.891,14.891v29.781c0,8.26,6.688,14.891,14.891,14.891s14.891-6.631,14.891-14.891
			v-29.781C674.214,427.703,667.526,421.073,659.323,421.073z M733.776,421.073c-8.203,0-14.891,6.63-14.891,14.891v29.781
			c0,8.26,6.688,14.891,14.891,14.891s14.891-6.631,14.891-14.891v-29.781C748.667,427.703,741.979,421.073,733.776,421.073z
			 M808.229,421.073c-8.203,0-14.891,6.63-14.891,14.891v29.781c0,8.26,6.688,14.891,14.891,14.891s14.891-6.631,14.891-14.891
			v-29.781C823.12,427.703,816.433,421.073,808.229,421.073z M882.683,421.073c-8.203,0-14.891,6.63-14.891,14.891v29.781
			c0,8.26,6.688,14.891,14.891,14.891s14.891-6.631,14.891-14.891v-29.781C897.573,427.703,890.886,421.073,882.683,421.073z
			 M435.964,867.792c24.604,0,44.672,20.067,44.672,44.672c0,24.604-20.068,44.672-44.672,44.672
			c-24.604,0-44.672-20.068-44.672-44.672C391.292,887.859,411.359,867.792,435.964,867.792z M733.776,867.792
			c24.604,0,44.672,20.067,44.672,44.672c0,24.604-20.068,44.672-44.672,44.672c-24.604,0-44.672-20.068-44.672-44.672
			C689.104,887.859,709.172,867.792,733.776,867.792z"/>
	</g>
</g>
<g>
	<defs>
		<rect id="SVGID_3_" x="93.333" y="108" width="923.365" height="908.698"/>
	</defs>
	<clipPath id="SVGID_4_">
		<use xlink:href="#SVGID_3_"  overflow="visible"/>
	</clipPath>
	<g clip-path="url(#SVGID_4_)">
		<path fill="#FFFFFF" d="M540.198,108.37c-38.271,0.167-75.828,10.438-108.859,29.781c-54.943,2.083-93.354,41.104-99.609,102.75
			c-2.756,27.771-2.089,55.776,1.947,83.386c0.808,4.927,1.25,9.901,1.339,14.891c0,2.781-0.442,5.563-1.339,8.344
			c-2.203,0.063-4.427,0.338-6.572,0.875c-24.568,6.552-34.839,42.458-23.818,83.557c8.042,29.781,24.729,52.114,42.896,59.563
			c9.275,27.667,22.021,54.016,37.953,78.464l-0.026,0.031c1.328,2.692,3.411,5.916,5.672,9.188L187.156,694.864
			c-56.912,26.964-93.677,85.073-93.677,148.031v84.459c0,24.63,20.042,44.672,44.672,44.672h539.057l4.683,4.682
			c5.151,5.136,13.271,5.787,19.167,1.573l33.474-23.906c7.224,3.646,14.739,6.729,22.484,9.276l6.745,40.599
			c1.192,7.177,7.406,12.448,14.688,12.448h59.563c7.281,0,13.494-5.271,14.688-12.448l6.744-40.599
			c7.745-2.547,15.276-5.631,22.484-9.276l33.475,23.906c5.896,4.239,14,3.552,19.166-1.599l42.115-42.115
			c5.135-5.15,5.828-13.255,1.599-19.166l-23.906-33.475c3.646-7.224,6.729-14.724,9.276-22.453l40.599-6.775
			c7.177-1.193,12.448-7.406,12.448-14.688v-59.563c0-7.281-5.271-13.479-12.448-14.656l-40.599-6.776
			c-2.547-7.729-5.631-15.234-9.276-22.453l23.906-33.474c4.239-5.912,3.552-14.047-1.599-19.198l-42.115-42.109
			c-5.166-5.167-13.271-5.844-19.166-1.599l-33.475,23.906c-7.224-3.651-14.739-6.734-22.484-9.281l-6.744-40.6
			c-1.193-7.177-7.406-12.447-14.688-12.447h-59.563c-5.672,0-10.609,3.255-13.115,8.057l-72.65-32.547
			c1.322-1.963,3.578-5.291,3.578-5.291c15.766-24.464,28.375-50.828,37.516-78.464c18.317-6.854,35.005-29.781,42.896-59.563
			c11.021-40.953-0.021-76.859-23.844-83.557c-2.104-0.537-4.239-0.813-6.401-0.875c-2.563-17.558-7.146-34.761-13.697-51.245
			v-1.625c7.057,0.844,13.979,2.641,20.563,5.349c7.594,3.156,16.302-0.432,19.458-8.026c1.177-2.828,1.438-5.953,0.781-8.927
			c-24.864-109-105.87-174.677-218.442-174.677H540.198z M540.198,138.151h14.891c90.385,0,155.609,46.162,182.411,127.766
			c-10.021-1.953-20.406,0.677-28.297,7.151c-8.578,9.338-10.308,23.063-4.308,34.234c7.938,19.266,12.484,39.792,13.406,60.609
			c0.417,8.219,7.417,14.547,15.62,14.13c2.589-0.13,5.099-0.938,7.271-2.354c1.193-0.891,2.584-1.521,4.042-1.802
			c3.589,1.193,10.12,19.365,2.677,46.912c-7.447,27.547-21.422,39-25.739,39c-6.833-0.266-12.984,4.167-14.891,10.729
			c-24.271,84.432-89.948,169.906-167.083,169.906c-77.136,0-142.792-85.479-167.953-169.761c-1.834-6.297-7.6-10.641-14.167-10.703
			h-0.292c-4.317,0-18.469-11.63-25.766-39.026c-7.297-27.4-0.75-46.021,2.678-46.911c1.474,0.25,2.864,0.88,4.041,1.802
			c6.969,4.364,16.141,2.255,20.506-4.714c1.354-2.172,2.13-4.651,2.266-7.208c0.359-7.688,1.203-15.339,2.531-22.922
			c0.775-8.156,0.369-16.386-1.193-24.427c-3.557-25.417-4.005-51.172-1.338-76.693c4.614-47.5,32.609-75.938,74.453-75.938
			c3.219,0,6.354-1.031,8.927-2.963C473.526,147.292,506.547,138.005,540.198,138.151z M453.411,229.354
			c-8.775,0.808-17.078,5.484-22.219,13.323l-23.817,36.177c-4.406,6.943-2.344,16.156,4.594,20.563
			c6.776,4.308,15.745,2.469,20.271-4.156l23.823-36.208l23.38,11.338c42.646,20.698,89.428,31.484,136.839,31.557h37.979
			c8.224,0,14.891-6.672,14.891-14.891s-6.667-14.891-14.891-14.891h-37.979c-42.933-0.057-85.286-9.838-123.896-28.588
			l-23.209-11.313C464.125,229.797,458.683,228.875,453.411,229.354z M674.677,599.817l84.839,37.984l-2.5,14.979
			c-7.745,2.547-15.276,5.672-22.484,9.308l-33.474-23.906c-5.912-4.245-14.026-3.568-19.167,1.599l-42.109,42.109
			c-5.156,5.141-5.828,13.239-1.599,19.167l23.906,33.474c-3.667,7.224-6.75,14.724-9.281,22.453l-40.6,6.776
			c-7.177,1.192-12.447,7.406-12.447,14.688v59.563c0,7.281,5.271,13.479,12.447,14.688l40.6,6.775
			c2.547,7.729,5.63,15.229,9.281,22.453l-23.906,33.475c-4.245,5.911-3.558,14.041,1.599,19.197l7.646,7.646H138.151
			c-8.219,0-14.891-6.688-14.891-14.891v-84.459c0-51.521,30.094-99.052,77.651-121.625l207.51-118.427
			c35.745,42.042,81.323,71.37,131.776,71.37C591.917,674.214,638.558,643.438,674.677,599.817z M791.073,629.542h34.317
			l6.224,37.344c0.953,5.775,5.219,10.447,10.875,11.953c11.672,3.083,22.766,7.666,33.011,13.641
			c5.047,2.932,11.391,2.682,16.172-0.729l30.766-22.016l24.286,24.286l-21.984,30.771c-3.427,4.766-3.724,11.104-0.76,16.166
			c5.974,10.276,10.572,21.354,13.641,32.984c1.505,5.656,6.161,9.953,11.953,10.906l37.344,6.225v34.317l-37.344,6.224
			c-5.792,0.953-10.448,5.245-11.953,10.906c-3.068,11.625-7.667,22.719-13.641,32.979c-2.964,5.063-2.651,11.406,0.76,16.172
			l21.984,30.766l-24.286,24.286l-30.766-21.984c-4.766-3.411-11.083-3.724-16.146-0.76c-10.256,5.974-21.375,10.588-33.037,13.672
			c-5.646,1.505-9.922,6.177-10.875,11.953l-6.224,37.313h-34.317l-6.225-37.313c-0.953-5.776-5.219-10.448-10.88-11.953
			c-11.656-3.084-22.792-7.698-33.036-13.672c-5.063-2.964-11.391-2.651-16.141,0.76l-30.771,21.984l-24.286-24.286l21.989-30.766
			c3.422-4.766,3.719-11.109,0.756-16.172c-5.975-10.276-10.573-21.354-13.641-32.979c-1.506-5.661-6.162-9.953-11.953-10.906
			l-37.344-6.224v-34.317l37.344-6.225c5.791-0.953,10.447-5.25,11.953-10.906c3.067-11.63,7.666-22.724,13.641-32.984
			c2.963-5.063,2.65-11.4-0.756-16.166l-21.989-30.771l24.286-24.286l30.797,21.989c4.766,3.406,11.078,3.688,16.141,0.756
			c10.245-5.975,21.339-10.589,33.011-13.672c5.646-1.5,9.927-6.172,10.88-11.953L791.073,629.542z M808.229,733.776
			c-41.053,0-74.453,33.4-74.453,74.453c0,41.052,33.4,74.453,74.453,74.453c41.052,0,74.453-33.401,74.453-74.453
			C882.683,767.177,849.281,733.776,808.229,733.776z M808.229,763.558c24.63,0,44.672,20.041,44.672,44.672
			c0,24.63-20.042,44.672-44.672,44.672c-24.631,0-44.672-20.042-44.672-44.672C763.558,783.599,783.599,763.558,808.229,763.558z
			 M182.823,852.901c-8.234,0-14.891,6.672-14.891,14.891v29.781c0,8.219,6.656,14.891,14.891,14.891s14.891-6.672,14.891-14.891
			v-29.781C197.713,859.573,191.057,852.901,182.823,852.901z M257.276,852.901c-8.234,0-14.891,6.672-14.891,14.891v29.781
			c0,8.219,6.656,14.891,14.891,14.891s14.891-6.672,14.891-14.891v-29.781C272.167,859.573,265.51,852.901,257.276,852.901z
			 M331.729,852.901c-8.234,0-14.891,6.672-14.891,14.891v29.781c0,8.219,6.656,14.891,14.891,14.891s14.891-6.672,14.891-14.891
			v-29.781C346.62,859.573,339.964,852.901,331.729,852.901z M406.183,852.901c-8.234,0-14.891,6.672-14.891,14.891v29.781
			c0,8.219,6.656,14.891,14.891,14.891s14.891-6.672,14.891-14.891v-29.781C421.073,859.573,414.417,852.901,406.183,852.901z
			 M480.636,852.901c-8.234,0-14.891,6.672-14.891,14.891v29.781c0,8.219,6.656,14.891,14.891,14.891s14.891-6.672,14.891-14.891
			v-29.781C495.526,859.573,488.87,852.901,480.636,852.901z M555.089,852.901c-8.234,0-14.891,6.672-14.891,14.891v29.781
			c0,8.219,6.656,14.891,14.891,14.891s14.891-6.672,14.891-14.891v-29.781C569.979,859.573,563.323,852.901,555.089,852.901z"/>
	</g>
</g>
</svg>
