<?xml version="1.0" encoding="utf-8"?>
<!-- Generator: Adobe Illustrator 16.0.2, SVG Export Plug-In . SVG Version: 6.00 Build 0)  -->
<!DOCTYPE svg PUBLIC "-//W3C//DTD SVG 1.1//EN" "http://www.w3.org/Graphics/SVG/1.1/DTD/svg11.dtd">
<svg version="1.1" id="Layer_1" xmlns="http://www.w3.org/2000/svg" xmlns:xlink="http://www.w3.org/1999/xlink" x="0px" y="0px"
	 width="1080px" height="1080px" viewBox="0 0 1080 1080" enable-background="new 0 0 1080 1080" xml:space="preserve">
<path fill="#FFFFFF" d="M325.214,178.604c-65.511,0-118.797,51.979-118.797,115.891v101.99c0,63.901,53.287,115.87,118.797,115.87
	h26.619c65.511,0,118.803-51.984,118.803-115.896V294.469c0-63.896-53.292-115.865-118.803-115.865H325.214z M673.984,178.682
	c-10.729-0.781-21.386,4.808-26.589,15.047L320.708,836.078c-6.942,13.646-1.567,30.364,12.006,37.349l49.161,25.261
	c13.567,6.979,30.214,1.567,37.151-12.089L745.719,244.25c6.938-13.641,1.567-30.365-12.005-37.344l-49.162-25.26
	C681.156,179.901,677.563,178.943,673.984,178.682z M671.974,206.359l49.162,25.26L394.448,873.969l-49.188-25.261L671.974,206.359z
	 M325.214,206.417h26.619c50.162,0,90.99,39.505,90.99,88.078v101.99c0,48.563-40.828,88.058-90.99,88.058h-26.619
	c-50.157,0-90.985-39.511-90.985-88.084V294.469C234.229,245.912,275.057,206.417,325.214,206.417z M325.214,262.042
	c-19.495,0-35.36,14.558-35.36,32.453v101.99c0,17.886,15.865,32.433,35.36,32.433h26.619c19.495,0,35.365-14.563,35.365-32.459
	V294.469c0-17.88-15.87-32.427-35.365-32.427H325.214z M325.214,289.854h26.619c4.604,0,7.553,2.75,7.553,4.641v101.99
	c0,1.88-2.948,4.62-7.553,4.62h-26.619c-4.6,0-7.547-2.756-7.547-4.646V294.469C317.667,292.594,320.614,289.854,325.214,289.854z
	 M707.042,484.542c-7.678,0-13.906,6.229-13.906,13.906v27.813c0,7.677,6.229,13.906,13.906,13.906
	c7.672,0,13.906-6.229,13.906-13.906v-27.813C720.948,490.771,714.714,484.542,707.042,484.542z M776.573,484.542
	c-7.678,0-13.906,6.229-13.906,13.906v27.813c0,7.677,6.229,13.906,13.906,13.906c7.672,0,13.906-6.229,13.906-13.906v-27.813
	C790.479,490.771,784.245,484.542,776.573,484.542z M846.104,484.542c-7.678,0-13.906,6.229-13.906,13.906v27.813
	c0,7.677,6.229,13.906,13.906,13.906c7.672,0,13.906-6.229,13.906-13.906v-27.813C860.011,490.771,853.776,484.542,846.104,484.542z
	 M234.229,540.167c-7.677,0-13.906,6.229-13.906,13.906v27.813c0,7.677,6.229,13.906,13.906,13.906
	c7.672,0,13.906-6.229,13.906-13.906v-27.813C248.135,546.396,241.901,540.167,234.229,540.167z M303.76,540.167
	c-7.677,0-13.906,6.229-13.906,13.906v27.813c0,7.677,6.229,13.906,13.906,13.906c7.672,0,13.907-6.229,13.907-13.906v-27.813
	C317.667,546.396,311.433,540.167,303.76,540.167z M373.292,540.167c-7.678,0-13.906,6.229-13.906,13.906v27.813
	c0,7.677,6.229,13.906,13.906,13.906c7.672,0,13.906-6.229,13.906-13.906v-27.813C387.198,546.396,380.964,540.167,373.292,540.167z
	 M728.495,567.979c-65.511,0-118.797,51.979-118.797,115.891v101.989c0,63.901,53.286,115.87,118.797,115.87h26.619
	c65.511,0,118.803-51.984,118.803-115.896V683.844c0-63.896-53.292-115.864-118.803-115.864H728.495z M728.495,595.792h26.619
	c50.162,0,90.99,39.505,90.99,88.078v101.989c0,48.563-40.828,88.058-90.99,88.058h-26.619c-50.156,0-90.984-39.511-90.984-88.084
	V683.844C637.511,635.286,678.339,595.792,728.495,595.792z M728.495,651.417c-19.495,0-35.359,14.557-35.359,32.453v101.989
	c0,17.886,15.864,32.433,35.359,32.433h26.619c19.495,0,35.365-14.563,35.365-32.459V683.844c0-17.88-15.87-32.427-35.365-32.427
	H728.495z M728.495,679.229h26.619c4.604,0,7.553,2.75,7.553,4.641v101.989c0,1.88-2.948,4.62-7.553,4.62h-26.619
	c-4.6,0-7.547-2.756-7.547-4.646V683.844C720.948,681.969,723.896,679.229,728.495,679.229z"/>
</svg>
