<?xml version="1.0" encoding="utf-8"?>
<!-- Generator: Adobe Illustrator 16.0.2, SVG Export Plug-In . SVG Version: 6.00 Build 0)  -->
<!DOCTYPE svg PUBLIC "-//W3C//DTD SVG 1.1//EN" "http://www.w3.org/Graphics/SVG/1.1/DTD/svg11.dtd">
<svg version="1.1" id="Layer_1" xmlns="http://www.w3.org/2000/svg" xmlns:xlink="http://www.w3.org/1999/xlink" x="0px" y="0px"
	 width="1080px" height="1080px" viewBox="0 0 1080 1080" enable-background="new 0 0 1080 1080" xml:space="preserve">
<g display="none">
	<defs>
		<rect id="SVGID_1_" x="63.698" y="63.698" width="953" height="924.302"/>
	</defs>
	<clipPath id="SVGID_2_" display="inline">
		<use xlink:href="#SVGID_1_"  overflow="visible"/>
	</clipPath>
	<g display="inline" clip-path="url(#SVGID_2_)">
		<path fill="#FFFFFF" d="M584.87,63.698c-3.781,0-7.62,1.453-10.526,4.365L455.219,187.188c-5.817,5.818-5.817,15.24,0,21.057
			c5.813,5.813,15.239,5.813,21.058,0l93.703-93.708v187.411H223.307l-4.188-52.87c-3.255-40.896-30.364-74.979-66.891-89.057
			c-3.724-20.88-21.932-36.761-43.859-36.761c-24.604,0-44.672,20.068-44.672,44.672c0,24.604,20.068,44.672,44.672,44.672
			c16.401,0,30.594-8.958,38.391-22.219c23.38,11.109,40.484,33.854,42.636,61.016l41.588,525.068
			c5.818,73.875,61.25,133.729,131.688,147.688c5.703,35.479,36.239,62.761,73.292,62.761c35.947,0,66.021-25.651,72.942-59.563
			h151.927c6.922,33.911,36.995,59.563,72.943,59.563c41.067,0,74.453-33.386,74.453-74.453c0-41.063-33.386-74.453-74.453-74.453
			c-35.948,0-66.021,25.65-72.943,59.563H508.906c-6.922-33.912-36.995-59.563-72.942-59.563c-34.609,0-63.516,23.849-71.834,55.9
			c-44.38-10.354-80.911-42.927-96.151-85.682h575.735c20.938,0,39.26-14.834,43.682-35.308l81.781-381.63h2.85
			c24.604,0,44.672-20.067,44.672-44.672c0-24.604-20.068-44.672-44.672-44.672H599.761V114.537l93.708,93.708
			c2.906,2.906,6.688,4.359,10.526,4.359c3.838,0,7.619-1.453,10.525-4.359c5.818-5.817,5.818-15.239,0-21.057L595.401,68.063
			C592.489,65.151,588.651,63.698,584.87,63.698z M108.37,153.042c8.203,0,14.891,6.693,14.891,14.891
			c0,8.203-6.688,14.891-14.891,14.891s-14.891-6.688-14.891-14.891C93.479,159.734,100.167,153.042,108.37,153.042z
			 M225.635,331.729h344.344v342.485c0,8.26,6.688,14.891,14.891,14.891s14.891-6.631,14.891-14.891V331.729h372.266
			c8.203,0,14.891,6.693,14.891,14.891c0,8.203-6.688,14.891-14.891,14.891H660.255c-8.203,0-14.891,6.63-14.891,14.891
			c0,8.261,6.688,14.891,14.891,14.891h278.443l-80.443,375.349c-1.458,6.864-7.563,11.808-14.541,11.808H261.172
			c-0.172-1.453-0.406-2.85-0.521-4.303l-30.307-382.854h280.073c8.203,0,14.891-6.63,14.891-14.891
			c0-8.26-6.688-14.891-14.891-14.891H227.958L225.635,331.729z M287.057,421.073c-8.203,0-14.891,6.63-14.891,14.891v29.781
			c0,8.26,6.688,14.891,14.891,14.891s14.891-6.631,14.891-14.891v-29.781C301.948,427.703,295.26,421.073,287.057,421.073z
			 M361.511,421.073c-8.203,0-14.891,6.63-14.891,14.891v29.781c0,8.26,6.688,14.891,14.891,14.891s14.891-6.631,14.891-14.891
			v-29.781C376.401,427.703,369.714,421.073,361.511,421.073z M435.964,421.073c-8.203,0-14.891,6.63-14.891,14.891v29.781
			c0,8.26,6.688,14.891,14.891,14.891s14.891-6.631,14.891-14.891v-29.781C450.854,427.703,444.167,421.073,435.964,421.073z
			 M510.417,421.073c-8.203,0-14.891,6.63-14.891,14.891v29.781c0,8.26,6.688,14.891,14.891,14.891s14.891-6.631,14.891-14.891
			v-29.781C525.308,427.703,518.62,421.073,510.417,421.073z M659.323,421.073c-8.203,0-14.891,6.63-14.891,14.891v29.781
			c0,8.26,6.688,14.891,14.891,14.891s14.891-6.631,14.891-14.891v-29.781C674.214,427.703,667.526,421.073,659.323,421.073z
			 M733.776,421.073c-8.203,0-14.891,6.63-14.891,14.891v29.781c0,8.26,6.688,14.891,14.891,14.891s14.891-6.631,14.891-14.891
			v-29.781C748.667,427.703,741.979,421.073,733.776,421.073z M808.229,421.073c-8.203,0-14.891,6.63-14.891,14.891v29.781
			c0,8.26,6.688,14.891,14.891,14.891s14.891-6.631,14.891-14.891v-29.781C823.12,427.703,816.433,421.073,808.229,421.073z
			 M882.683,421.073c-8.203,0-14.891,6.63-14.891,14.891v29.781c0,8.26,6.688,14.891,14.891,14.891s14.891-6.631,14.891-14.891
			v-29.781C897.573,427.703,890.886,421.073,882.683,421.073z M435.964,867.792c24.604,0,44.672,20.067,44.672,44.672
			c0,24.604-20.068,44.672-44.672,44.672c-24.604,0-44.672-20.068-44.672-44.672C391.292,887.859,411.359,867.792,435.964,867.792z
			 M733.776,867.792c24.604,0,44.672,20.067,44.672,44.672c0,24.604-20.068,44.672-44.672,44.672
			c-24.604,0-44.672-20.068-44.672-44.672C689.104,887.859,709.172,867.792,733.776,867.792z"/>
	</g>
</g>
<g>
	<defs>
		<rect id="SVGID_3_" x="54.37" y="184" width="971" height="790.667"/>
	</defs>
	<clipPath id="SVGID_4_">
		<use xlink:href="#SVGID_3_"  overflow="visible"/>
	</clipPath>
	<g clip-path="url(#SVGID_4_)">
		<path d="M99.885,185.073c-25.094,0-45.516,20.422-45.516,45.516c0,19.755,12.729,36.448,30.344,42.729v430.417
			C67.099,710,54.37,726.677,54.37,746.433v91.031c0,25.094,20.422,45.516,45.516,45.516h77.073
			c7.406,51.391,51.599,91.031,104.989,91.031c53.391,0,97.583-39.641,104.99-91.031h336.208
			c7.406,51.391,51.6,91.031,104.99,91.031s97.583-39.641,104.989-91.031h46.729c25.094,0,45.516-20.422,45.516-45.516v-91.031
			c0-19.948-12.99-36.734-30.881-42.875c0.172-0.881,0.537-1.714,0.537-2.641v-58.021c0-14.563-4.172-28.781-12.063-41.041
			l-108.99-169.526c-14.016-21.817-37.869-34.849-63.797-34.849H782.62v-30.344c0-8.375-6.797-15.172-15.172-15.172
			s-15.172,6.797-15.172,15.172v30.344h-60.688V273.318c17.614-6.281,30.344-22.974,30.344-42.729
			c0-25.094-20.422-45.516-45.516-45.516H99.885z M99.885,215.417h576.532c8.359,0,15.172,6.813,15.172,15.172
			s-6.813,15.172-15.172,15.172H99.885c-8.359,0-15.172-6.813-15.172-15.172S91.526,215.417,99.885,215.417z M115.057,276.104
			h546.188v424.813H115.057V276.104z M388.151,306.448c-100.391,0-182.063,81.672-182.063,182.063
			c0,100.396,81.672,182.063,182.063,182.063c100.391,0,182.063-81.667,182.063-182.063
			C570.214,388.12,488.542,306.448,388.151,306.448z M388.151,336.792c83.656,0,151.719,68.063,151.719,151.719
			c0,83.661-68.063,151.719-151.719,151.719c-83.657,0-151.719-68.058-151.719-151.719
			C236.432,404.854,304.495,336.792,388.151,336.792z M691.589,427.823h118.588c15.553,0,29.881,7.813,38.287,20.891
			l108.989,169.557c4.734,7.375,7.229,15.886,7.229,24.625v58.021H691.589V427.823z M464.011,428.656
			c-3.881,0-7.761,1.474-10.729,4.442l-95.474,95.475l-34.792-34.787c-5.927-5.932-15.521-5.932-21.453,0
			c-5.932,5.933-5.932,15.521,0,21.453l45.516,45.516c2.958,2.959,6.844,4.448,10.729,4.448c3.885,0,7.766-1.489,10.724-4.448
			l106.203-106.203c5.933-5.932,5.933-15.521,0-21.453C471.771,430.13,467.891,428.656,464.011,428.656z M752.276,458.167
			c-16.734,0-30.344,13.609-30.344,30.344v91.031c0,16.734,13.609,30.344,30.344,30.344h109.166
			c11.031,0,21.209-5.979,26.553-15.615c5.354-9.635,5.036-21.442-0.803-30.786l-56.896-91.063
			c-5.599-8.938-15.234-14.255-25.75-14.255H752.276z M752.276,488.511h52.271l56.984,91.031H752.276V488.511z M737.104,640.229
			c-8.375,0-15.172,6.797-15.172,15.172s6.797,15.172,15.172,15.172h30.344c8.375,0,15.172-6.797,15.172-15.172
			s-6.797-15.172-15.172-15.172H737.104z M99.885,731.261h879.969c8.359,0,15.172,6.813,15.172,15.172v91.031
			c0,8.359-6.813,15.172-15.172,15.172h-46.729c-7.406-51.386-51.599-91.031-104.989-91.031s-97.584,39.646-104.99,91.031H386.938
			c-7.406-51.386-51.599-91.031-104.99-91.031c-53.391,0-97.583,39.646-104.989,91.031H99.885c-8.359,0-15.172-6.813-15.172-15.172
			v-15.172c8.375,0,15.172-6.797,15.172-15.172v-30.344c0-8.375-6.797-15.172-15.172-15.172v-15.172
			C84.713,738.073,91.526,731.261,99.885,731.261z M160.573,761.604c-8.375,0-15.172,6.797-15.172,15.172v30.344
			c0,8.375,6.797,15.172,15.172,15.172s15.172-6.797,15.172-15.172v-30.344C175.745,768.401,168.948,761.604,160.573,761.604z
			 M403.323,761.604c-8.375,0-15.172,6.797-15.172,15.172v30.344c0,8.375,6.797,15.172,15.172,15.172s15.172-6.797,15.172-15.172
			v-30.344C418.495,768.401,411.698,761.604,403.323,761.604z M479.183,761.604c-8.375,0-15.172,6.797-15.172,15.172v30.344
			c0,8.375,6.797,15.172,15.172,15.172s15.172-6.797,15.172-15.172v-30.344C494.354,768.401,487.558,761.604,479.183,761.604z
			 M555.042,761.604c-8.375,0-15.172,6.797-15.172,15.172v30.344c0,8.375,6.797,15.172,15.172,15.172s15.172-6.797,15.172-15.172
			v-30.344C570.214,768.401,563.417,761.604,555.042,761.604z M630.901,761.604c-8.375,0-15.172,6.797-15.172,15.172v30.344
			c0,8.375,6.797,15.172,15.172,15.172s15.172-6.797,15.172-15.172v-30.344C646.073,768.401,639.276,761.604,630.901,761.604z
			 M706.761,761.604c-8.375,0-15.172,6.797-15.172,15.172v30.344c0,8.375,6.797,15.172,15.172,15.172s15.172-6.797,15.172-15.172
			v-30.344C721.933,768.401,715.136,761.604,706.761,761.604z M949.511,761.604c-8.375,0-15.172,6.797-15.172,15.172v30.344
			c0,8.375,6.797,15.172,15.172,15.172s15.172-6.797,15.172-15.172v-30.344C964.683,768.401,957.886,761.604,949.511,761.604z
			 M281.948,791.948c41.829,0,75.86,34.031,75.86,75.859s-34.031,75.859-75.86,75.859c-41.828,0-75.859-34.031-75.859-75.859
			S240.12,791.948,281.948,791.948z M828.136,791.948c41.828,0,75.859,34.031,75.859,75.859s-34.031,75.859-75.859,75.859
			s-75.859-34.031-75.859-75.859S786.308,791.948,828.136,791.948z M281.948,837.464c-0.995,0-1.984,0.052-2.974,0.146
			c-0.99,0.099-1.974,0.245-2.948,0.438c-0.974,0.192-1.938,0.438-2.885,0.724c-0.953,0.287-1.885,0.625-2.807,1.006
			c-0.917,0.38-1.813,0.802-2.688,1.271c-0.88,0.469-1.729,0.979-2.558,1.531c-0.823,0.552-1.625,1.146-2.391,1.776
			c-0.771,0.63-1.505,1.297-2.208,2s-1.37,1.438-2,2.203c-0.63,0.771-1.219,1.567-1.771,2.391c-0.552,0.828-1.063,1.682-1.531,2.557
			s-0.896,1.771-1.276,2.693c-0.38,0.916-0.714,1.849-1,2.802c-0.292,0.953-0.531,1.911-0.724,2.891
			c-0.193,0.974-0.338,1.953-0.438,2.942c-0.099,0.99-0.146,1.979-0.146,2.975c0,0.994,0.047,1.984,0.146,2.974
			s0.245,1.974,0.438,2.948c0.193,0.974,0.432,1.938,0.724,2.885c0.286,0.953,0.62,1.886,1,2.808
			c0.38,0.917,0.807,1.813,1.276,2.692c0.469,0.875,0.979,1.725,1.531,2.553s1.141,1.625,1.771,2.391
			c0.63,0.771,1.297,1.505,2,2.208s1.438,1.37,2.208,2c0.766,0.63,1.568,1.219,2.391,1.771c0.828,0.553,1.677,1.063,2.558,1.531
			c0.875,0.469,1.771,0.896,2.688,1.276c0.922,0.38,1.854,0.714,2.807,1c0.948,0.292,1.912,0.531,2.885,0.724
			c0.974,0.193,1.958,0.339,2.948,0.438c0.989,0.1,1.979,0.146,2.974,0.146c0.995,0,1.984-0.047,2.974-0.146
			c0.99-0.099,1.969-0.244,2.948-0.438c0.974-0.192,1.938-0.432,2.886-0.724c0.953-0.286,1.885-0.62,2.802-1
			c0.922-0.38,1.818-0.808,2.693-1.276c0.88-0.469,1.729-0.979,2.557-1.531c0.823-0.552,1.62-1.141,2.391-1.771
			c0.766-0.63,1.505-1.297,2.208-2c0.698-0.703,1.365-1.438,1.995-2.208c0.635-0.766,1.224-1.563,1.776-2.391
			c0.553-0.828,1.063-1.678,1.531-2.553c0.469-0.88,0.891-1.775,1.271-2.692c0.38-0.922,0.719-1.854,1.005-2.808
			c0.286-0.947,0.531-1.911,0.724-2.885c0.193-0.975,0.339-1.959,0.438-2.948c0.1-0.989,0.146-1.979,0.146-2.974
			c0-0.995-0.047-1.984-0.146-2.975c-0.099-0.989-0.244-1.969-0.438-2.942c-0.192-0.979-0.438-1.938-0.724-2.891
			s-0.625-1.886-1.005-2.802c-0.381-0.922-0.803-1.818-1.271-2.693s-0.979-1.729-1.531-2.557c-0.552-0.823-1.141-1.62-1.776-2.391
			c-0.63-0.766-1.297-1.5-1.995-2.203c-0.703-0.703-1.443-1.37-2.208-2c-0.771-0.631-1.567-1.225-2.391-1.776
			c-0.828-0.552-1.677-1.063-2.557-1.531c-0.875-0.469-1.771-0.891-2.693-1.271c-0.917-0.381-1.849-0.719-2.802-1.006
			c-0.948-0.286-1.912-0.531-2.886-0.724c-0.979-0.192-1.958-0.339-2.948-0.438C283.932,837.516,282.943,837.464,281.948,837.464z
			 M828.136,837.464c-0.995,0-1.984,0.052-2.975,0.146c-0.989,0.099-1.974,0.245-2.947,0.438c-0.975,0.192-1.938,0.438-2.886,0.724
			c-0.953,0.287-1.886,0.625-2.808,1.006c-0.916,0.38-1.813,0.802-2.688,1.271c-0.88,0.469-1.729,0.979-2.557,1.531
			s-1.625,1.146-2.391,1.776c-0.771,0.63-1.506,1.297-2.209,2s-1.369,1.438-2,2.203c-0.63,0.771-1.219,1.567-1.771,2.391
			c-0.552,0.828-1.063,1.682-1.531,2.557s-0.896,1.771-1.276,2.693c-0.38,0.916-0.713,1.849-1,2.802
			c-0.291,0.953-0.531,1.911-0.724,2.891c-0.192,0.974-0.339,1.953-0.438,2.942c-0.099,0.99-0.146,1.979-0.146,2.975
			c0,0.994,0.047,1.984,0.146,2.974s0.245,1.974,0.438,2.948c0.192,0.974,0.433,1.938,0.724,2.885c0.287,0.953,0.62,1.886,1,2.808
			c0.381,0.917,0.808,1.813,1.276,2.692c0.469,0.875,0.979,1.725,1.531,2.553s1.141,1.625,1.771,2.391
			c0.631,0.771,1.297,1.505,2,2.208s1.438,1.37,2.209,2c0.766,0.63,1.563,1.219,2.391,1.771c0.828,0.553,1.677,1.063,2.557,1.531
			c0.875,0.469,1.771,0.896,2.688,1.276c0.922,0.38,1.854,0.714,2.808,1c0.948,0.292,1.911,0.531,2.886,0.724
			c0.974,0.193,1.958,0.339,2.947,0.438c0.99,0.1,1.979,0.146,2.975,0.146c0.994,0,1.984-0.047,2.974-0.146
			c0.989-0.099,1.969-0.244,2.942-0.438c0.979-0.192,1.938-0.432,2.891-0.724c0.953-0.286,1.886-0.62,2.803-1
			c0.922-0.38,1.817-0.808,2.692-1.276c0.88-0.469,1.729-0.979,2.558-1.531c0.822-0.552,1.619-1.141,2.391-1.771
			c0.766-0.63,1.505-1.297,2.203-2c0.703-0.703,1.369-1.438,2-2.208c0.63-0.766,1.224-1.563,1.775-2.391
			c0.553-0.828,1.063-1.678,1.531-2.553c0.469-0.88,0.891-1.775,1.271-2.692c0.38-0.922,0.719-1.854,1.005-2.808
			c0.286-0.947,0.531-1.911,0.724-2.885c0.193-0.975,0.339-1.959,0.438-2.948c0.1-0.989,0.146-1.979,0.146-2.974
			c0-0.995-0.047-1.984-0.146-2.975c-0.099-0.989-0.244-1.969-0.438-2.942c-0.192-0.979-0.438-1.938-0.724-2.891
			s-0.625-1.886-1.005-2.802c-0.381-0.922-0.803-1.818-1.271-2.693s-0.979-1.729-1.531-2.557c-0.552-0.823-1.146-1.62-1.775-2.391
			c-0.631-0.766-1.297-1.5-2-2.203c-0.698-0.703-1.438-1.37-2.203-2c-0.771-0.631-1.568-1.225-2.391-1.776
			c-0.828-0.552-1.678-1.063-2.558-1.531c-0.875-0.469-1.771-0.891-2.692-1.271c-0.917-0.381-1.85-0.719-2.803-1.006
			c-0.953-0.286-1.911-0.531-2.891-0.724c-0.974-0.192-1.953-0.339-2.942-0.438C830.12,837.516,829.13,837.464,828.136,837.464z"/>
	</g>
</g>
</svg>
