<?xml version="1.0" encoding="utf-8"?>
<!-- Generator: Adobe Illustrator 16.0.2, SVG Export Plug-In . SVG Version: 6.00 Build 0)  -->
<!DOCTYPE svg PUBLIC "-//W3C//DTD SVG 1.1//EN" "http://www.w3.org/Graphics/SVG/1.1/DTD/svg11.dtd">
<svg version="1.1" id="Layer_1" xmlns="http://www.w3.org/2000/svg" xmlns:xlink="http://www.w3.org/1999/xlink" x="0px" y="0px"
	 width="1080px" height="1080px" viewBox="0 0 1080 1080" enable-background="new 0 0 1080 1080" xml:space="preserve">
<g display="none">
	<defs>
		<rect id="SVGID_1_" x="63.698" y="63.698" width="953" height="924.302"/>
	</defs>
	<clipPath id="SVGID_2_" display="inline">
		<use xlink:href="#SVGID_1_"  overflow="visible"/>
	</clipPath>
	<g display="inline" clip-path="url(#SVGID_2_)">
		<path fill="#FFFFFF" d="M584.87,63.698c-3.781,0-7.62,1.453-10.526,4.365L455.219,187.188c-5.817,5.813-5.817,15.24,0,21.057
			c5.813,5.813,15.239,5.813,21.058,0l93.703-93.708v187.411H223.307l-4.188-52.875c-3.255-40.891-30.364-74.974-66.891-89.052
			c-3.724-20.88-21.932-36.761-43.859-36.761c-24.604,0-44.672,20.068-44.672,44.672c0,24.604,20.068,44.672,44.672,44.672
			c16.401,0,30.594-8.958,38.391-22.219c23.38,11.109,40.484,33.854,42.636,61.016l41.588,525.068
			c5.818,73.875,61.25,133.729,131.688,147.688c5.703,35.479,36.239,62.761,73.292,62.761c35.947,0,66.021-25.651,72.942-59.563
			h151.927c6.922,33.911,36.995,59.563,72.943,59.563c41.067,0,74.453-33.386,74.453-74.453c0-41.068-33.386-74.453-74.453-74.453
			c-35.948,0-66.021,25.65-72.943,59.563H508.906c-6.922-33.912-36.995-59.563-72.942-59.563c-34.609,0-63.516,23.849-71.834,55.896
			c-44.38-10.349-80.911-42.922-96.151-85.677h575.735c20.938,0,39.26-14.834,43.682-35.308l81.781-381.63h2.85
			c24.604,0,44.672-20.067,44.672-44.672c0-24.604-20.068-44.672-44.672-44.672H599.761V114.537l93.708,93.708
			c2.906,2.906,6.688,4.359,10.526,4.359c3.838,0,7.619-1.453,10.525-4.359c5.818-5.817,5.818-15.245,0-21.057L595.401,68.063
			C592.489,65.151,588.651,63.698,584.87,63.698z M108.37,153.042c8.203,0,14.891,6.688,14.891,14.891s-6.688,14.891-14.891,14.891
			s-14.891-6.688-14.891-14.891S100.167,153.042,108.37,153.042z M225.635,331.729h344.344v342.485
			c0,8.26,6.688,14.891,14.891,14.891s14.891-6.631,14.891-14.891V331.729h372.266c8.203,0,14.891,6.688,14.891,14.891
			s-6.688,14.891-14.891,14.891H660.255c-8.203,0-14.891,6.63-14.891,14.891c0,8.261,6.688,14.891,14.891,14.891h278.443
			l-80.443,375.349c-1.458,6.864-7.563,11.808-14.541,11.808H261.172c-0.172-1.453-0.406-2.85-0.521-4.303l-30.307-382.854h280.073
			c8.203,0,14.891-6.63,14.891-14.891c0-8.26-6.688-14.891-14.891-14.891H227.958L225.635,331.729z M287.057,421.073
			c-8.203,0-14.891,6.63-14.891,14.891v29.781c0,8.26,6.688,14.891,14.891,14.891s14.891-6.631,14.891-14.891v-29.781
			C301.948,427.703,295.26,421.073,287.057,421.073z M361.511,421.073c-8.203,0-14.891,6.63-14.891,14.891v29.781
			c0,8.26,6.688,14.891,14.891,14.891s14.891-6.631,14.891-14.891v-29.781C376.401,427.703,369.714,421.073,361.511,421.073z
			 M435.964,421.073c-8.203,0-14.891,6.63-14.891,14.891v29.781c0,8.26,6.688,14.891,14.891,14.891s14.891-6.631,14.891-14.891
			v-29.781C450.854,427.703,444.167,421.073,435.964,421.073z M510.417,421.073c-8.203,0-14.891,6.63-14.891,14.891v29.781
			c0,8.26,6.688,14.891,14.891,14.891s14.891-6.631,14.891-14.891v-29.781C525.308,427.703,518.62,421.073,510.417,421.073z
			 M659.323,421.073c-8.203,0-14.891,6.63-14.891,14.891v29.781c0,8.26,6.688,14.891,14.891,14.891s14.891-6.631,14.891-14.891
			v-29.781C674.214,427.703,667.526,421.073,659.323,421.073z M733.776,421.073c-8.203,0-14.891,6.63-14.891,14.891v29.781
			c0,8.26,6.688,14.891,14.891,14.891s14.891-6.631,14.891-14.891v-29.781C748.667,427.703,741.979,421.073,733.776,421.073z
			 M808.229,421.073c-8.203,0-14.891,6.63-14.891,14.891v29.781c0,8.26,6.688,14.891,14.891,14.891s14.891-6.631,14.891-14.891
			v-29.781C823.12,427.703,816.433,421.073,808.229,421.073z M882.683,421.073c-8.203,0-14.891,6.63-14.891,14.891v29.781
			c0,8.26,6.688,14.891,14.891,14.891s14.891-6.631,14.891-14.891v-29.781C897.573,427.703,890.886,421.073,882.683,421.073z
			 M435.964,867.792c24.604,0,44.672,20.067,44.672,44.672c0,24.604-20.068,44.672-44.672,44.672
			c-24.604,0-44.672-20.068-44.672-44.672C391.292,887.859,411.359,867.792,435.964,867.792z M733.776,867.792
			c24.604,0,44.672,20.067,44.672,44.672c0,24.604-20.068,44.672-44.672,44.672c-24.604,0-44.672-20.068-44.672-44.672
			C689.104,887.859,709.172,867.792,733.776,867.792z"/>
	</g>
</g>
<g>
	<defs>
		<rect id="SVGID_3_" x="63.698" y="93.333" width="953" height="894.667"/>
	</defs>
	<clipPath id="SVGID_4_">
		<use xlink:href="#SVGID_3_"  overflow="visible"/>
	</clipPath>
	<g clip-path="url(#SVGID_4_)">
		<path d="M346.62,93.479c-3.141,0-6.281,0.99-8.901,2.969l-50.662,37.979l-50.661-37.979c-4.479-3.432-10.531-3.901-15.589-1.396
			c-5.005,2.557-8.203,7.677-8.203,13.317v402.047h-14.891c-73.927,0-134.016,60.146-134.016,134.016v297.813
			c0,24.604,20.068,44.672,44.672,44.672h863.657c24.604,0,44.672-20.068,44.672-44.672V644.433
			c0-73.87-60.084-134.016-134.016-134.016h-14.891V138.151c0-3.953-1.568-7.734-4.359-10.526l-29.781-29.781
			c-5.24-5.234-13.558-5.875-19.433-1.396l-50.661,37.979l-50.662-37.979c-5.234-3.958-12.563-3.958-17.802,0l-50.661,37.979
			l-50.662-37.979c-5.234-3.958-12.563-3.958-17.802,0l-50.661,37.979l-50.662-37.979c-5.234-3.958-12.563-3.958-17.802,0
			l-50.661,37.979l-50.662-37.979C352.901,94.469,349.761,93.479,346.62,93.479z M346.62,126.984l50.661,37.984
			c5.239,3.953,12.567,3.953,17.802,0l50.662-37.984l50.661,37.984c5.239,3.953,12.567,3.953,17.802,0l50.662-37.984l50.661,37.984
			c5.239,3.953,12.567,3.953,17.802,0l50.662-37.984l50.661,37.984c5.239,3.953,12.567,3.953,17.802,0l49.266-36.938l16.287,16.287
			V584.87c-8.261,0-14.891,6.688-14.891,14.891v29.781c0,8.203,6.63,14.891,14.891,14.891v44.672H242.385v-44.672
			c8.261,0,14.891-6.688,14.891-14.891v-29.781c0-8.203-6.63-14.891-14.891-14.891V138.151l35.771,26.818
			c5.24,3.953,12.568,3.953,17.802,0L346.62,126.984z M346.62,272.167c-8.261,0-14.891,6.688-14.891,14.891
			s6.63,14.891,14.891,14.891h238.25c8.26,0,14.891-6.688,14.891-14.891s-6.631-14.891-14.891-14.891H346.62z M674.214,272.167
			c-8.261,0-14.891,6.688-14.891,14.891s6.63,14.891,14.891,14.891h59.563c8.26,0,14.891-6.688,14.891-14.891
			s-6.631-14.891-14.891-14.891H674.214z M346.62,331.729c-8.261,0-14.891,6.688-14.891,14.891s6.63,14.891,14.891,14.891h163.797
			c8.26,0,14.891-6.688,14.891-14.891s-6.631-14.891-14.891-14.891H346.62z M703.995,331.729c-8.261,0-14.891,6.688-14.891,14.891
			s6.63,14.891,14.891,14.891h29.781c8.26,0,14.891-6.688,14.891-14.891s-6.631-14.891-14.891-14.891H703.995z M346.62,421.073
			c-8.261,0-14.891,6.688-14.891,14.891s6.63,14.891,14.891,14.891h148.906c8.26,0,14.891-6.688,14.891-14.891
			s-6.631-14.891-14.891-14.891H346.62z M674.214,421.073c-8.261,0-14.891,6.688-14.891,14.891s6.63,14.891,14.891,14.891h59.563
			c8.26,0,14.891-6.688,14.891-14.891s-6.631-14.891-14.891-14.891H674.214z M346.62,480.636c-8.261,0-14.891,6.688-14.891,14.891
			s6.63,14.891,14.891,14.891h193.578c8.26,0,14.891-6.688,14.891-14.891s-6.631-14.891-14.891-14.891H346.62z M674.214,480.636
			c-8.261,0-14.891,6.688-14.891,14.891s6.63,14.891,14.891,14.891h59.563c8.26,0,14.891-6.688,14.891-14.891
			s-6.631-14.891-14.891-14.891H674.214z M197.713,540.198h14.891v59.563c-32.864,0-59.563,26.697-59.563,59.563
			c0,32.864,26.698,59.563,59.563,59.563h655.188c32.864,0,59.563-26.698,59.563-59.563c0-32.865-26.698-59.563-59.563-59.563
			v-59.563h14.891c57.469,0,104.234,46.766,104.234,104.234v297.813c0,8.203-6.688,14.891-14.891,14.891H108.37
			c-8.203,0-14.891-6.688-14.891-14.891V644.433C93.479,586.964,140.245,540.198,197.713,540.198z M316.839,584.87
			c-8.261,0-14.891,6.688-14.891,14.891v29.781c0,8.203,6.63,14.891,14.891,14.891c8.26,0,14.891-6.688,14.891-14.891v-29.781
			C331.729,591.558,325.099,584.87,316.839,584.87z M391.292,584.87c-8.261,0-14.891,6.688-14.891,14.891v29.781
			c0,8.203,6.63,14.891,14.891,14.891c8.26,0,14.891-6.688,14.891-14.891v-29.781C406.183,591.558,399.552,584.87,391.292,584.87z
			 M465.745,584.87c-8.261,0-14.891,6.688-14.891,14.891v29.781c0,8.203,6.63,14.891,14.891,14.891
			c8.26,0,14.891-6.688,14.891-14.891v-29.781C480.636,591.558,474.005,584.87,465.745,584.87z M540.198,584.87
			c-8.261,0-14.891,6.688-14.891,14.891v29.781c0,8.203,6.63,14.891,14.891,14.891c8.26,0,14.891-6.688,14.891-14.891v-29.781
			C555.089,591.558,548.458,584.87,540.198,584.87z M614.651,584.87c-8.261,0-14.891,6.688-14.891,14.891v29.781
			c0,8.203,6.63,14.891,14.891,14.891c8.26,0,14.891-6.688,14.891-14.891v-29.781C629.542,591.558,622.911,584.87,614.651,584.87z
			 M689.104,584.87c-8.261,0-14.891,6.688-14.891,14.891v29.781c0,8.203,6.63,14.891,14.891,14.891
			c8.26,0,14.891-6.688,14.891-14.891v-29.781C703.995,591.558,697.364,584.87,689.104,584.87z M763.558,584.87
			c-8.261,0-14.891,6.688-14.891,14.891v29.781c0,8.203,6.63,14.891,14.891,14.891c8.26,0,14.891-6.688,14.891-14.891v-29.781
			C778.448,591.558,771.817,584.87,763.558,584.87z M212.604,629.542v59.563c-16.401,0-29.781-13.381-29.781-29.781
			C182.823,642.922,196.203,629.542,212.604,629.542z M867.792,629.542c16.4,0,29.781,13.38,29.781,29.781
			c0,16.4-13.381,29.781-29.781,29.781V629.542z M182.823,777.692c-16.401,0-29.781,13.381-29.781,29.781v59.563
			c0,16.401,13.38,29.781,29.781,29.781h387.157c16.4,0,29.781-13.38,29.781-29.781v-59.563c0-16.4-13.381-29.781-29.781-29.781
			H182.823z M689.104,777.692c-16.401,0-29.781,13.381-29.781,29.781v59.563c0,16.401,13.38,29.781,29.781,29.781h59.563
			c16.4,0,29.781-13.38,29.781-29.781v-59.563c0-16.4-13.381-29.781-29.781-29.781H689.104z M838.011,777.692
			c-16.401,0-29.781,13.381-29.781,29.781v59.563c0,16.401,13.38,29.781,29.781,29.781h59.563c16.4,0,29.781-13.38,29.781-29.781
			v-59.563c0-16.4-13.381-29.781-29.781-29.781H838.011z M182.823,807.474h387.157v59.563H182.823V807.474z M689.104,807.474h59.563
			v59.563h-59.563V807.474z M838.011,807.474h59.563v59.563h-59.563V807.474z"/>
	</g>
</g>
</svg>
