<svg xmlns="http://www.w3.org/2000/svg" xmlns:xlink="http://www.w3.org/1999/xlink" width="1080" zoomAndPan="magnify" viewBox="0 0 810 809.999993" height="1080" preserveAspectRatio="xMidYMid meet" version="1.0"><defs><clipPath id="9c3f53b44f"><path d="M 58 153 L 394 153 L 394 748.792969 L 58 748.792969 Z M 58 153 " clip-rule="nonzero"/></clipPath></defs><g clip-path="url(#9c3f53b44f)"><path fill="#f41212" d="M 364 210.625 C 308.414062 156.015625 229.652344 138.871094 164.746094 167.238281 C 99.273438 195.851562 56.183594 266.738281 58.808594 343.578125 C 60.6875 398.632812 83.40625 446.609375 113.808594 491.050781 C 185.867188 596.378906 284.777344 673.488281 386.441406 747.449219 C 387.914062 748.519531 390.460938 748.894531 393.136719 748.773438 L 393.136719 239.488281 C 382.742188 229.183594 373.398438 219.863281 364 210.625 Z M 364 210.625 " fill-opacity="1" fill-rule="nonzero"/></g><path fill="#000000" d="M 398.003906 710.867188 C 393.863281 710.867188 389.839844 709.929688 386.910156 707.800781 C 285.054688 633.703125 179.226562 552.035156 103.007812 440.625 C 64.960938 385.015625 46.417969 335.136719 44.660156 283.652344 C 41.839844 200.972656 87.898438 124.464844 159.277344 93.269531 C 229.886719 62.417969 314.421875 80.691406 374.628906 139.851562 C 381.234375 146.34375 387.800781 152.863281 394.707031 159.722656 L 399.121094 164.097656 C 401.101562 162.078125 403.046875 160.089844 404.957031 158.128906 C 412.96875 149.925781 420.539062 142.171875 428.566406 134.800781 C 494.792969 73.9375 586.851562 61.078125 657.644531 102.820312 C 731.269531 146.226562 768.167969 238.054688 747.386719 326.128906 C 730.496094 397.71875 688.230469 454.171875 653.296875 495.363281 C 582.058594 579.34375 495.632812 646.511719 412.851562 706.578125 C 409.203125 709.222656 403.496094 710.867188 398.003906 710.867188 Z M 230.703125 95.417969 C 208.589844 95.417969 186.664062 99.792969 166.0625 108.796875 C 100.988281 137.230469 59.007812 207.265625 61.597656 283.074219 C 63.238281 331.199219 80.839844 378.222656 116.988281 431.0625 C 191.691406 540.246094 296.21875 620.875 396.882812 694.101562 C 397.679688 694.191406 401.65625 693.6875 402.917969 692.855469 C 484.820312 633.421875 570.292969 567.023438 640.371094 484.402344 C 674.082031 444.664062 714.835938 390.316406 730.898438 322.238281 C 749.992188 241.3125 716.332031 157.085938 649.039062 117.410156 C 584.710938 79.480469 500.722656 91.484375 440.03125 147.273438 C 432.34375 154.335938 424.929688 161.925781 417.082031 169.964844 C 413.253906 173.882812 409.316406 177.914062 405.171875 182.070312 C 401.871094 185.367188 396.527344 185.382812 393.207031 182.105469 L 382.761719 171.742188 C 375.882812 164.90625 369.335938 158.402344 362.75 151.9375 C 325.222656 115.0625 277.550781 95.417969 230.703125 95.417969 Z M 230.703125 95.417969 " fill-opacity="1" fill-rule="nonzero"/></svg>