<?xml version="1.0" encoding="utf-8"?>
<!-- Generator: Adobe Illustrator 16.0.2, SVG Export Plug-In . SVG Version: 6.00 Build 0)  -->
<!DOCTYPE svg PUBLIC "-//W3C//DTD SVG 1.1//EN" "http://www.w3.org/Graphics/SVG/1.1/DTD/svg11.dtd">
<svg version="1.1" id="Layer_1" xmlns="http://www.w3.org/2000/svg" xmlns:xlink="http://www.w3.org/1999/xlink" x="0px" y="0px"
	 width="1080px" height="1080px" viewBox="0 0 1080 1080" enable-background="new 0 0 1080 1080" xml:space="preserve">
<g display="none">
	<defs>
		<rect id="SVGID_1_" x="63.698" y="63.698" width="953" height="924.302"/>
	</defs>
	<clipPath id="SVGID_2_" display="inline">
		<use xlink:href="#SVGID_1_"  overflow="visible"/>
	</clipPath>
	<g display="inline" clip-path="url(#SVGID_2_)">
		<path fill="#FFFFFF" d="M584.87,63.698c-3.781,0-7.62,1.453-10.526,4.365L455.219,187.188c-5.817,5.818-5.817,15.24,0,21.057
			c5.813,5.813,15.239,5.813,21.058,0l93.703-93.708v187.411H223.307l-4.188-52.875c-3.255-40.891-30.364-74.974-66.891-89.052
			c-3.724-20.88-21.932-36.761-43.859-36.761c-24.604,0-44.672,20.068-44.672,44.672c0,24.604,20.068,44.672,44.672,44.672
			c16.401,0,30.594-8.958,38.391-22.219c23.38,11.109,40.484,33.854,42.636,61.016l41.588,525.068
			c5.818,73.875,61.25,133.729,131.688,147.688c5.703,35.479,36.239,62.761,73.292,62.761c35.947,0,66.021-25.651,72.942-59.563
			h151.927c6.922,33.911,36.995,59.563,72.943,59.563c41.067,0,74.453-33.386,74.453-74.453c0-41.063-33.386-74.453-74.453-74.453
			c-35.948,0-66.021,25.65-72.943,59.563H508.906c-6.922-33.912-36.995-59.563-72.942-59.563c-34.609,0-63.516,23.849-71.834,55.9
			c-44.38-10.354-80.911-42.927-96.151-85.682h575.735c20.938,0,39.26-14.834,43.682-35.308l81.781-381.63h2.85
			c24.604,0,44.672-20.067,44.672-44.672c0-24.604-20.068-44.672-44.672-44.672H599.761V114.537l93.708,93.708
			c2.906,2.906,6.688,4.359,10.526,4.359c3.838,0,7.619-1.453,10.525-4.359c5.818-5.817,5.818-15.239,0-21.057L595.401,68.063
			C592.489,65.151,588.651,63.698,584.87,63.698z M108.37,153.042c8.203,0,14.891,6.688,14.891,14.891s-6.688,14.891-14.891,14.891
			s-14.891-6.688-14.891-14.891S100.167,153.042,108.37,153.042z M225.635,331.729h344.344v342.485
			c0,8.26,6.688,14.891,14.891,14.891s14.891-6.631,14.891-14.891V331.729h372.266c8.203,0,14.891,6.688,14.891,14.891
			s-6.688,14.891-14.891,14.891H660.255c-8.203,0-14.891,6.63-14.891,14.891c0,8.261,6.688,14.891,14.891,14.891h278.443
			l-80.443,375.349c-1.458,6.864-7.563,11.808-14.541,11.808H261.172c-0.172-1.453-0.406-2.85-0.521-4.303l-30.307-382.854h280.073
			c8.203,0,14.891-6.63,14.891-14.891c0-8.26-6.688-14.891-14.891-14.891H227.958L225.635,331.729z M287.057,421.073
			c-8.203,0-14.891,6.63-14.891,14.891v29.781c0,8.26,6.688,14.891,14.891,14.891s14.891-6.631,14.891-14.891v-29.781
			C301.948,427.703,295.26,421.073,287.057,421.073z M361.511,421.073c-8.203,0-14.891,6.63-14.891,14.891v29.781
			c0,8.26,6.688,14.891,14.891,14.891s14.891-6.631,14.891-14.891v-29.781C376.401,427.703,369.714,421.073,361.511,421.073z
			 M435.964,421.073c-8.203,0-14.891,6.63-14.891,14.891v29.781c0,8.26,6.688,14.891,14.891,14.891s14.891-6.631,14.891-14.891
			v-29.781C450.854,427.703,444.167,421.073,435.964,421.073z M510.417,421.073c-8.203,0-14.891,6.63-14.891,14.891v29.781
			c0,8.26,6.688,14.891,14.891,14.891s14.891-6.631,14.891-14.891v-29.781C525.308,427.703,518.62,421.073,510.417,421.073z
			 M659.323,421.073c-8.203,0-14.891,6.63-14.891,14.891v29.781c0,8.26,6.688,14.891,14.891,14.891s14.891-6.631,14.891-14.891
			v-29.781C674.214,427.703,667.526,421.073,659.323,421.073z M733.776,421.073c-8.203,0-14.891,6.63-14.891,14.891v29.781
			c0,8.26,6.688,14.891,14.891,14.891s14.891-6.631,14.891-14.891v-29.781C748.667,427.703,741.979,421.073,733.776,421.073z
			 M808.229,421.073c-8.203,0-14.891,6.63-14.891,14.891v29.781c0,8.26,6.688,14.891,14.891,14.891s14.891-6.631,14.891-14.891
			v-29.781C823.12,427.703,816.433,421.073,808.229,421.073z M882.683,421.073c-8.203,0-14.891,6.63-14.891,14.891v29.781
			c0,8.26,6.688,14.891,14.891,14.891s14.891-6.631,14.891-14.891v-29.781C897.573,427.703,890.886,421.073,882.683,421.073z
			 M435.964,867.792c24.604,0,44.672,20.067,44.672,44.672c0,24.604-20.068,44.672-44.672,44.672
			c-24.604,0-44.672-20.068-44.672-44.672C391.292,887.859,411.359,867.792,435.964,867.792z M733.776,867.792
			c24.604,0,44.672,20.067,44.672,44.672c0,24.604-20.068,44.672-44.672,44.672c-24.604,0-44.672-20.068-44.672-44.672
			C689.104,887.859,709.172,867.792,733.776,867.792z"/>
	</g>
</g>
<path d="M540.219,17.719c-34.063,0-68.125,10.578-97.156,31.677l-44.516,32.385H160.359c-27.292,0-49.547,22.255-49.547,49.547
	v858.813c0,27.292,22.255,49.547,49.547,49.547h759.719c27.292,0,49.547-22.255,49.547-49.547V131.328
	c0-27.292-22.255-49.547-49.547-49.547h-238.25l-44.516-32.385C608.281,28.297,574.219,17.719,540.219,17.719z M540.219,50.813
	c27.224-0.063,54.448,8.391,77.677,25.292l67.094,48.771c12.771,9.292,20.386,24.323,20.386,40.13v32.385
	c0,9.094-7.422,16.516-16.516,16.516H391.578c-9.099,0-16.516-7.422-16.516-16.516v-32.385c0-15.808,7.614-30.839,20.386-40.13
	l67.094-48.771C485.771,59.266,512.995,50.813,540.219,50.813z M540.219,81.781c-18.261,0-33.031,14.776-33.031,33.031
	s14.771,33.031,33.031,33.031c18.255,0,33.031-14.776,33.031-33.031S558.474,81.781,540.219,81.781z M160.359,114.813h198.833
	c-10.906,14.255-17.161,31.87-17.161,50.193v15.87h-99.094c-18.193,0-33.031,14.838-33.031,33.031v693.656
	c0,18.192,14.838,33.031,33.031,33.031h465.276c13.224,0,25.677-5.161,35.031-14.516l112.771-112.771
	c9.354-9.354,14.516-21.808,14.516-35.031v-564.37c0-18.193-14.839-33.031-33.031-33.031h-99.094v-15.87
	c0-18.323-6.261-35.938-17.161-50.193h198.833c9.094,0,16.516,7.417,16.516,16.516v858.813c0,9.094-7.422,16.516-16.516,16.516
	H160.359c-9.099,0-16.516-7.422-16.516-16.516V131.328C143.844,122.229,151.26,114.813,160.359,114.813z M242.938,213.906h102.125
	c6.839,19.162,25.031,33.031,46.516,33.031h297.281c21.484,0,39.677-13.87,46.516-33.031H837.5v561.531h-99.094
	c-18.192,0-33.031,14.839-33.031,33.031v99.094H242.938V213.906z M292.484,279.969c-9.099,0-16.516,7.354-16.516,16.516v33.031
	c0,9.162,7.417,16.516,16.516,16.516c9.094,0,16.516-7.354,16.516-16.516v-33.031C309,287.323,301.578,279.969,292.484,279.969z
	 M375.063,279.969c-9.099,0-16.516,7.354-16.516,16.516v33.031c0,9.162,7.417,16.516,16.516,16.516
	c9.094,0,16.516-7.354,16.516-16.516v-33.031C391.578,287.323,384.156,279.969,375.063,279.969z M457.641,279.969
	c-9.099,0-16.516,7.354-16.516,16.516v33.031c0,9.162,7.417,16.516,16.516,16.516c9.094,0,16.516-7.354,16.516-16.516v-33.031
	C474.156,287.323,466.734,279.969,457.641,279.969z M540.219,279.969c-9.099,0-16.516,7.354-16.516,16.516v33.031
	c0,9.162,7.417,16.516,16.516,16.516c9.094,0,16.516-7.354,16.516-16.516v-33.031C556.734,287.323,549.313,279.969,540.219,279.969z
	 M622.797,279.969c-9.099,0-16.516,7.354-16.516,16.516v33.031c0,9.162,7.417,16.516,16.516,16.516
	c9.094,0,16.516-7.354,16.516-16.516v-33.031C639.313,287.323,631.891,279.969,622.797,279.969z M705.375,279.969
	c-9.099,0-16.516,7.354-16.516,16.516v33.031c0,9.162,7.417,16.516,16.516,16.516c9.094,0,16.516-7.354,16.516-16.516v-33.031
	C721.891,287.323,714.469,279.969,705.375,279.969z M787.953,279.969c-9.099,0-16.516,7.354-16.516,16.516v33.031
	c0,9.162,7.417,16.516,16.516,16.516c9.094,0,16.516-7.354,16.516-16.516v-33.031C804.469,287.323,797.047,279.969,787.953,279.969z
	 M358.547,428.609c-18.261,0-33.031,14.771-33.031,33.031c0,18.255,14.771,33.031,33.031,33.031
	c18.255,0,33.031-14.776,33.031-33.031C391.578,443.38,376.802,428.609,358.547,428.609z M457.641,445.125
	c-9.099,0-16.516,7.354-16.516,16.516s7.417,16.516,16.516,16.516h297.281c9.094,0,16.516-7.354,16.516-16.516
	s-7.422-16.516-16.516-16.516H457.641z M358.547,527.703c-18.261,0-33.031,14.771-33.031,33.031
	c0,18.255,14.771,33.031,33.031,33.031c18.255,0,33.031-14.776,33.031-33.031C391.578,542.474,376.802,527.703,358.547,527.703z
	 M457.641,544.219c-9.099,0-16.516,7.354-16.516,16.516s7.417,16.516,16.516,16.516h231.219c9.094,0,16.516-7.354,16.516-16.516
	s-7.422-16.516-16.516-16.516H457.641z M358.547,626.797c-18.261,0-33.031,14.771-33.031,33.031
	c0,18.255,14.771,33.031,33.031,33.031c18.255,0,33.031-14.776,33.031-33.031C391.578,641.567,376.802,626.797,358.547,626.797z
	 M457.641,643.313c-9.099,0-16.516,7.354-16.516,16.516s7.417,16.516,16.516,16.516h264.25c9.094,0,16.516-7.354,16.516-16.516
	s-7.422-16.516-16.516-16.516H457.641z M358.547,725.891c-18.261,0-33.031,14.771-33.031,33.031
	c0,18.255,14.771,33.031,33.031,33.031c18.255,0,33.031-14.776,33.031-33.031C391.578,740.661,376.802,725.891,358.547,725.891z
	 M457.641,742.406c-9.099,0-16.516,7.354-16.516,16.516s7.417,16.516,16.516,16.516h99.094c9.094,0,16.516-7.354,16.516-16.516
	s-7.422-16.516-16.516-16.516H457.641z M738.406,808.469h75.739l-75.739,75.739V808.469z"/>
</svg>
