<?xml version="1.0" encoding="utf-8"?>
<!-- Generator: Adobe Illustrator 16.0.2, SVG Export Plug-In . SVG Version: 6.00 Build 0)  -->
<!DOCTYPE svg PUBLIC "-//W3C//DTD SVG 1.1//EN" "http://www.w3.org/Graphics/SVG/1.1/DTD/svg11.dtd">
<svg version="1.1" id="Layer_1" xmlns="http://www.w3.org/2000/svg" xmlns:xlink="http://www.w3.org/1999/xlink" x="0px" y="0px"
	 width="1080px" height="1080px" viewBox="0 0 1080 1080" enable-background="new 0 0 1080 1080" xml:space="preserve">
<g>
	<defs>
		<rect id="SVGID_1_" x="54" y="236" width="972" height="729.333"/>
	</defs>
	<clipPath id="SVGID_2_">
		<use xlink:href="#SVGID_1_"  overflow="visible"/>
	</clipPath>
	<g clip-path="url(#SVGID_2_)">
		<path fill="#FFFFFF" d="M69.188,236.25c-8.365,0-15.188,6.766-15.188,15.188c0,8.427,6.823,15.188,15.188,15.188h577.125
			c8.364,0,15.188,6.823,15.188,15.188v410.063H114.75V555.188c0-8.422-6.823-15.188-15.188-15.188s-15.188,6.766-15.188,15.188
			v136.688c0,0.948,0.354,1.781,0.537,2.609C66.995,700.656,54,717.442,54,737.438v91.125c0,25.094,20.469,45.563,45.563,45.563
			h77.125c7.417,51.438,51.672,91.125,105.125,91.125s97.708-39.688,105.125-91.125h336.5
			c7.417,51.438,51.672,91.125,105.125,91.125s97.708-39.688,105.125-91.125h46.75c25.094,0,45.563-20.469,45.563-45.563v-91.125
			c0-19.995-12.995-36.781-30.911-42.953c0.182-0.828,0.536-1.661,0.536-2.609v-58.078c0-14.594-4.151-28.776-12.104-41.114
			L874.422,423.011c-14-21.834-37.849-34.886-63.833-34.886H783V357.75c0-8.422-6.823-15.188-15.188-15.188
			s-15.188,6.766-15.188,15.188v30.375h-60.75V281.813c0-25.094-20.469-45.563-45.563-45.563H69.188z M69.188,297
			C60.823,297,54,303.766,54,312.188c0,8.427,6.823,15.188,15.188,15.188h60.75c8.365,0,15.188-6.76,15.188-15.188
			c0-8.422-6.823-15.188-15.188-15.188H69.188z M190.688,297c-8.365,0-15.188,6.766-15.188,15.188
			c0,8.427,6.823,15.188,15.188,15.188h334.125c8.364,0,15.188-6.76,15.188-15.188c0-8.422-6.823-15.188-15.188-15.188H190.688z
			 M69.188,357.75c-8.365,0-15.188,6.766-15.188,15.188c0,8.427,6.823,15.188,15.188,15.188h334.125
			c8.364,0,15.188-6.76,15.188-15.188c0-8.422-6.823-15.188-15.188-15.188H69.188z M69.188,418.5
			C60.823,418.5,54,425.266,54,433.688c0,8.427,6.823,15.188,15.188,15.188h212.625c8.365,0,15.188-6.761,15.188-15.188
			c0-8.422-6.823-15.188-15.188-15.188H69.188z M691.875,418.5h118.714c15.541,0,29.9,7.833,38.322,20.942l109.1,169.672
			c4.75,7.417,7.239,15.959,7.239,24.683v58.078H691.875V418.5z M752.625,448.875c-16.729,0-30.375,13.646-30.375,30.375v91.125
			c0,16.729,13.646,30.375,30.375,30.375h109.281c11.031,0,21.234-5.989,26.578-15.661c5.339-9.609,5.042-21.475-0.833-30.85
			l-56.953-91.125c-5.578-8.9-15.245-14.239-25.745-14.239H752.625z M69.188,479.25c-8.365,0-15.188,6.766-15.188,15.188
			c0,8.427,6.823,15.188,15.188,15.188h91.125c8.365,0,15.188-6.761,15.188-15.188c0-8.422-6.823-15.188-15.188-15.188H69.188z
			 M752.625,479.25h52.328l57.067,91.125H752.625V479.25z M737.438,631.125c-8.364,0-15.188,6.766-15.188,15.188
			c0,8.427,6.823,15.188,15.188,15.188h30.375c8.364,0,15.188-6.761,15.188-15.188c0-8.422-6.823-15.188-15.188-15.188H737.438z
			 M99.563,722.25h880.875c8.364,0,15.188,6.823,15.188,15.188v91.125c0,8.364-6.823,15.188-15.188,15.188h-46.75
			c-7.417-51.438-51.672-91.125-105.125-91.125s-97.708,39.688-105.125,91.125h-336.5c-7.417-51.438-51.672-91.125-105.125-91.125
			s-97.708,39.688-105.125,91.125H99.563c-8.365,0-15.188-6.823-15.188-15.188v-15.188c8.365,0,15.188-6.766,15.188-15.188v-30.375
			c0-8.422-6.823-15.188-15.188-15.188v-15.188C84.375,729.073,91.198,722.25,99.563,722.25z M160.313,752.625
			c-8.365,0-15.188,6.766-15.188,15.188v30.375c0,8.422,6.823,15.188,15.188,15.188s15.188-6.766,15.188-15.188v-30.375
			C175.5,759.391,168.677,752.625,160.313,752.625z M403.313,752.625c-8.364,0-15.188,6.766-15.188,15.188v30.375
			c0,8.422,6.823,15.188,15.188,15.188s15.188-6.766,15.188-15.188v-30.375C418.5,759.391,411.677,752.625,403.313,752.625z
			 M479.25,752.625c-8.364,0-15.188,6.766-15.188,15.188v30.375c0,8.422,6.823,15.188,15.188,15.188s15.188-6.766,15.188-15.188
			v-30.375C494.438,759.391,487.614,752.625,479.25,752.625z M555.188,752.625c-8.364,0-15.188,6.766-15.188,15.188v30.375
			c0,8.422,6.823,15.188,15.188,15.188s15.188-6.766,15.188-15.188v-30.375C570.375,759.391,563.552,752.625,555.188,752.625z
			 M631.125,752.625c-8.364,0-15.188,6.766-15.188,15.188v30.375c0,8.422,6.823,15.188,15.188,15.188s15.188-6.766,15.188-15.188
			v-30.375C646.313,759.391,639.489,752.625,631.125,752.625z M707.063,752.625c-8.364,0-15.188,6.766-15.188,15.188v30.375
			c0,8.422,6.823,15.188,15.188,15.188s15.188-6.766,15.188-15.188v-30.375C722.25,759.391,715.427,752.625,707.063,752.625z
			 M950.063,752.625c-8.364,0-15.188,6.766-15.188,15.188v30.375c0,8.422,6.823,15.188,15.188,15.188s15.188-6.766,15.188-15.188
			v-30.375C965.25,759.391,958.427,752.625,950.063,752.625z M281.813,783c41.886,0,75.938,34.052,75.938,75.938
			s-34.052,75.938-75.938,75.938c-41.885,0-75.938-34.052-75.938-75.938S239.927,783,281.813,783z M828.563,783
			c41.886,0,75.938,34.052,75.938,75.938s-34.052,75.938-75.938,75.938s-75.938-34.052-75.938-75.938S786.677,783,828.563,783z
			 M281.813,828.563c-16.792,0-30.375,13.583-30.375,30.375s13.583,30.375,30.375,30.375s30.375-13.583,30.375-30.375
			S298.604,828.563,281.813,828.563z M828.563,828.563c-16.792,0-30.375,13.583-30.375,30.375s13.583,30.375,30.375,30.375
			s30.375-13.583,30.375-30.375S845.354,828.563,828.563,828.563z"/>
	</g>
</g>
</svg>
