<?xml version="1.0" encoding="utf-8"?>
<!-- Generator: Adobe Illustrator 16.0.2, SVG Export Plug-In . SVG Version: 6.00 Build 0)  -->
<!DOCTYPE svg PUBLIC "-//W3C//DTD SVG 1.1//EN" "http://www.w3.org/Graphics/SVG/1.1/DTD/svg11.dtd">
<svg version="1.1" id="Layer_1" xmlns="http://www.w3.org/2000/svg" xmlns:xlink="http://www.w3.org/1999/xlink" x="0px" y="0px"
	 width="1080px" height="1080px" viewBox="0 0 1080 1080" enable-background="new 0 0 1080 1080" xml:space="preserve">
<path fill="#FFFFFF" d="M524.886,79.463c-245.573,0-445.422,199.792-445.422,445.422c0,245.63,199.849,445.422,445.422,445.422
	c245.567,0,445.422-199.792,445.422-445.422C970.308,279.255,770.453,79.463,524.886,79.463z M524.886,110.182
	c228.65,0,414.703,186.052,414.703,414.704c0,228.65-186.053,414.703-414.703,414.703c-228.651,0-414.704-186.053-414.704-414.703
	C110.182,296.234,296.234,110.182,524.886,110.182z M518.167,171.74c-90.479,1.802-178.193,38.458-243.11,103.317
	c-137.698,137.75-137.698,361.844,0,499.599c3,3,6.958,4.5,10.859,4.5c3.958,0,7.917-1.5,10.917-4.5c6-6,6-15.719,0-21.719
	c-125.813-125.755-125.755-330.349,0-456.104c72.896-72.958,177.354-106.797,279.349-90.417c8.338,1.38,16.26-4.38,17.578-12.719
	c1.38-8.401-4.381-16.317-12.719-17.641C560.104,172.698,539.047,171.26,518.167,171.74z M642.542,192.917
	c-6,0.24-11.521,4.021-13.74,9.964c-3,7.979,1.021,16.797,9,19.797c10.979,4.078,21.776,8.817,32.276,14.042
	c2.219,1.135,4.563,1.677,6.901,1.677c5.578,0,10.979-3.058,13.739-8.458c3.781-7.563,0.719-16.802-6.839-20.641
	c-11.4-5.76-23.338-10.917-35.338-15.417C646.563,193.156,644.521,192.859,642.542,192.917z M731.219,243.438
	c-3.901,0.479-7.62,2.401-10.261,5.76c-5.219,6.656-4.083,16.318,2.641,21.537c10.256,8.042,20.1,16.802,29.339,26.099
	c125.813,125.755,125.813,330.349,0,456.104c-6,6.058-6,15.719,0,21.776c3,2.942,6.958,4.5,10.917,4.5c3.9,0,7.859-1.558,10.859-4.5
	c137.697-137.756,137.697-361.906,0-499.657c-10.141-10.083-20.938-19.682-32.156-28.5
	C739.198,243.974,735.058,242.958,731.219,243.438z M417.37,355.932c-8.521,0-15.359,6.901-15.359,15.359
	c0,8.458,6.838,15.359,15.359,15.359h61.438c42.359,0,76.797,34.438,76.797,76.797s-34.438,76.797-76.797,76.797h-30.719
	c-5.943,0-11.281,3.359-13.859,8.697c-2.521,5.339-1.803,11.641,1.859,16.261l122.875,153.594c3.057,3.781,7.5,5.761,12,5.761
	c3.422,0,6.781-1.078,9.599-3.359c6.599-5.281,7.683-14.943,2.401-21.6L480.005,570.964c53.521-0.6,97.678-40.558,105.12-92.156
	h47.276c8.521,0,15.359-6.901,15.359-15.359c0-8.459-6.839-15.359-15.359-15.359h-47.276c-3.484-23.938-14.761-45.297-31.203-61.438
	h78.479c8.521,0,15.359-6.901,15.359-15.359c0-8.458-6.839-15.359-15.359-15.359H417.37z M417.37,448.089
	c-8.521,0-15.359,6.9-15.359,15.359c0,8.458,6.838,15.359,15.359,15.359h92.156c8.521,0,15.359-6.901,15.359-15.359
	c0-8.459-6.839-15.359-15.359-15.359H417.37z M377.052,776.692c-6-0.719-12.063,2.042-15.182,7.563l-15.359,26.641
	c-4.261,7.318-1.74,16.678,5.583,20.938c2.396,1.381,5.036,2.1,7.677,2.1c5.281,0,10.443-2.761,13.261-7.678l15.359-26.641
	c4.261-7.322,1.802-16.739-5.578-21C380.953,777.594,379.031,776.933,377.052,776.692z M672.719,776.692
	c-1.979,0.24-3.958,0.901-5.761,1.922c-7.38,4.261-9.838,13.678-5.578,21.058l15.359,26.583c2.818,4.917,7.979,7.678,13.261,7.678
	c2.641,0,5.276-0.662,7.677-2.1c7.381-4.203,9.839-13.619,5.578-20.938l-15.359-26.583
	C684.719,778.797,678.656,775.974,672.719,776.692z M604.563,806.636c-1.979-0.303-4.078-0.183-6.183,0.416
	c-8.156,2.162-13.016,10.62-10.859,18.781l7.979,29.698c1.859,6.839,8.042,11.401,14.823,11.401c1.38,0,2.697-0.183,4.021-0.542
	c8.156-2.219,13.078-10.62,10.859-18.781l-7.922-29.698C615.599,811.734,610.442,807.474,604.563,806.636z M445.266,806.636
	c-5.938,0.838-11.099,5.099-12.776,11.275l-7.922,29.698c-2.219,8.161,2.703,16.563,10.859,18.781
	c1.323,0.359,2.641,0.542,4.021,0.542c6.719,0,12.958-4.563,14.817-11.401l7.984-29.698c2.156-8.161-2.703-16.619-10.864-18.781
	C449.349,806.453,447.25,806.396,445.266,806.636z M524.886,816.714c-8.521,0-15.359,6.9-15.359,15.359v30.719
	c0,8.458,6.838,15.359,15.359,15.359c8.521,0,15.359-6.901,15.359-15.359v-30.719C540.245,823.614,533.406,816.714,524.886,816.714z
	"/>
</svg>
