<?xml version="1.0" encoding="utf-8"?>
<!-- Generator: Adobe Illustrator 16.0.2, SVG Export Plug-In . SVG Version: 6.00 Build 0)  -->
<!DOCTYPE svg PUBLIC "-//W3C//DTD SVG 1.1//EN" "http://www.w3.org/Graphics/SVG/1.1/DTD/svg11.dtd">
<svg version="1.1" id="Layer_1" xmlns="http://www.w3.org/2000/svg" xmlns:xlink="http://www.w3.org/1999/xlink" x="0px" y="0px"
	 width="1080px" height="1080px" viewBox="0 0 1080 1080" enable-background="new 0 0 1080 1080" xml:space="preserve">
<g>
	<defs>
		<rect id="SVGID_1_" x="63.698" y="63.698" width="953" height="924.302"/>
	</defs>
	<clipPath id="SVGID_2_">
		<use xlink:href="#SVGID_1_"  overflow="visible"/>
	</clipPath>
	<g clip-path="url(#SVGID_2_)">
		<path fill="#FFFFFF" d="M584.87,63.698c-3.781,0-7.62,1.453-10.526,4.365L455.219,187.188c-5.817,5.818-5.817,15.24,0,21.057
			c5.813,5.813,15.239,5.813,21.058,0l93.703-93.708v187.411H223.307l-4.188-52.875c-3.255-40.891-30.364-74.974-66.891-89.052
			c-3.724-20.88-21.932-36.761-43.859-36.761c-24.604,0-44.672,20.068-44.672,44.672c0,24.604,20.068,44.672,44.672,44.672
			c16.401,0,30.594-8.958,38.391-22.219c23.38,11.109,40.484,33.854,42.636,61.016l41.588,525.068
			c5.818,73.875,61.25,133.729,131.688,147.688c5.703,35.479,36.239,62.761,73.292,62.761c35.947,0,66.021-25.651,72.942-59.563
			h151.927c6.922,33.911,36.995,59.563,72.943,59.563c41.067,0,74.453-33.386,74.453-74.453c0-41.063-33.386-74.453-74.453-74.453
			c-35.948,0-66.021,25.65-72.943,59.563H508.906c-6.922-33.912-36.995-59.563-72.942-59.563c-34.609,0-63.516,23.849-71.834,55.9
			c-44.38-10.354-80.911-42.927-96.151-85.682h575.735c20.938,0,39.26-14.834,43.682-35.308l81.781-381.63h2.85
			c24.604,0,44.672-20.067,44.672-44.672c0-24.604-20.068-44.672-44.672-44.672H599.761V114.537l93.708,93.708
			c2.906,2.906,6.688,4.359,10.526,4.359c3.838,0,7.619-1.453,10.525-4.359c5.818-5.817,5.818-15.239,0-21.057L595.401,68.063
			C592.489,65.151,588.651,63.698,584.87,63.698z M108.37,153.042c8.203,0,14.891,6.688,14.891,14.891s-6.688,14.891-14.891,14.891
			s-14.891-6.688-14.891-14.891S100.167,153.042,108.37,153.042z M225.635,331.729h344.344v342.485
			c0,8.26,6.688,14.891,14.891,14.891s14.891-6.631,14.891-14.891V331.729h372.266c8.203,0,14.891,6.688,14.891,14.891
			s-6.688,14.891-14.891,14.891H660.255c-8.203,0-14.891,6.63-14.891,14.891c0,8.261,6.688,14.891,14.891,14.891h278.443
			l-80.443,375.349c-1.458,6.864-7.563,11.808-14.541,11.808H261.172c-0.172-1.453-0.406-2.85-0.521-4.303l-30.307-382.854h280.073
			c8.203,0,14.891-6.63,14.891-14.891c0-8.26-6.688-14.891-14.891-14.891H227.958L225.635,331.729z M287.057,421.073
			c-8.203,0-14.891,6.63-14.891,14.891v29.781c0,8.26,6.688,14.891,14.891,14.891s14.891-6.631,14.891-14.891v-29.781
			C301.948,427.703,295.26,421.073,287.057,421.073z M361.511,421.073c-8.203,0-14.891,6.63-14.891,14.891v29.781
			c0,8.26,6.688,14.891,14.891,14.891s14.891-6.631,14.891-14.891v-29.781C376.401,427.703,369.714,421.073,361.511,421.073z
			 M435.964,421.073c-8.203,0-14.891,6.63-14.891,14.891v29.781c0,8.26,6.688,14.891,14.891,14.891s14.891-6.631,14.891-14.891
			v-29.781C450.854,427.703,444.167,421.073,435.964,421.073z M510.417,421.073c-8.203,0-14.891,6.63-14.891,14.891v29.781
			c0,8.26,6.688,14.891,14.891,14.891s14.891-6.631,14.891-14.891v-29.781C525.308,427.703,518.62,421.073,510.417,421.073z
			 M659.323,421.073c-8.203,0-14.891,6.63-14.891,14.891v29.781c0,8.26,6.688,14.891,14.891,14.891s14.891-6.631,14.891-14.891
			v-29.781C674.214,427.703,667.526,421.073,659.323,421.073z M733.776,421.073c-8.203,0-14.891,6.63-14.891,14.891v29.781
			c0,8.26,6.688,14.891,14.891,14.891s14.891-6.631,14.891-14.891v-29.781C748.667,427.703,741.979,421.073,733.776,421.073z
			 M808.229,421.073c-8.203,0-14.891,6.63-14.891,14.891v29.781c0,8.26,6.688,14.891,14.891,14.891s14.891-6.631,14.891-14.891
			v-29.781C823.12,427.703,816.433,421.073,808.229,421.073z M882.683,421.073c-8.203,0-14.891,6.63-14.891,14.891v29.781
			c0,8.26,6.688,14.891,14.891,14.891s14.891-6.631,14.891-14.891v-29.781C897.573,427.703,890.886,421.073,882.683,421.073z
			 M435.964,867.792c24.604,0,44.672,20.067,44.672,44.672c0,24.604-20.068,44.672-44.672,44.672
			c-24.604,0-44.672-20.068-44.672-44.672C391.292,887.859,411.359,867.792,435.964,867.792z M733.776,867.792
			c24.604,0,44.672,20.067,44.672,44.672c0,24.604-20.068,44.672-44.672,44.672c-24.604,0-44.672-20.068-44.672-44.672
			C689.104,887.859,709.172,867.792,733.776,867.792z"/>
	</g>
</g>
<path display="none" d="M541.922,45.854c-269.802,0-489.375,219.505-489.375,489.375c0,269.864,219.573,489.375,489.375,489.375
	c269.802,0,489.375-219.511,489.375-489.375C1031.297,265.359,811.724,45.854,541.922,45.854z M541.922,79.604
	c251.214,0,455.625,204.412,455.625,455.625c0,251.213-204.411,455.625-455.625,455.625c-251.213,0-455.625-204.412-455.625-455.625
	C86.297,284.016,290.708,79.604,541.922,79.604z M534.536,147.234c-99.406,1.979-195.775,42.255-267.099,113.51
	c-151.281,151.349-151.281,397.552,0,548.901c3.297,3.292,7.646,4.943,11.932,4.943c4.349,0,8.698-1.651,11.995-4.943
	c6.594-6.594,6.594-17.271,0-23.864c-138.229-138.161-138.162-362.942,0-501.109c80.093-80.156,194.854-117.333,306.917-99.338
	c9.161,1.516,17.864-4.813,19.313-13.974c1.516-9.229-4.813-17.927-13.974-19.38C580.614,148.292,557.474,146.708,534.536,147.234z
	 M671.188,170.505c-6.594,0.26-12.656,4.417-15.099,10.942c-3.297,8.766,1.119,18.453,9.891,21.75
	c12.063,4.484,23.927,9.693,35.463,15.427c2.438,1.25,5.011,1.844,7.578,1.844c6.131,0,12.063-3.359,15.094-9.292
	c4.156-8.308,0.792-18.458-7.51-22.677c-12.526-6.328-25.646-12-38.828-16.943C675.599,170.766,673.359,170.438,671.188,170.505z
	 M768.609,226.005c-4.281,0.531-8.37,2.641-11.271,6.328c-5.734,7.317-4.479,17.932,2.9,23.667
	c11.271,8.833,22.084,18.458,32.234,28.672c138.229,138.167,138.229,362.948,0,501.109c-6.594,6.656-6.594,17.271,0,23.927
	c3.297,3.229,7.646,4.948,11.995,4.948c4.286,0,8.636-1.719,11.933-4.948c151.281-151.344,151.281-397.614,0-548.963
	c-11.141-11.073-23.006-21.62-35.334-31.313C777.38,226.599,772.828,225.479,768.609,226.005z M423.797,349.604
	c-9.364,0-16.875,7.578-16.875,16.875c0,9.292,7.511,16.875,16.875,16.875h67.5c46.536,0,84.375,37.833,84.375,84.375
	c0,46.536-37.839,84.375-84.375,84.375h-33.75c-6.526,0-12.396,3.688-15.229,9.557c-2.771,5.865-1.979,12.787,2.042,17.865
	l135,168.75c3.364,4.15,8.239,6.328,13.188,6.328c3.755,0,7.448-1.188,10.547-3.693c7.25-5.802,8.438-16.411,2.636-23.729
	L492.614,585.854c58.797-0.662,107.313-44.563,115.484-101.25h51.948c9.359,0,16.875-7.584,16.875-16.875
	c0-9.297-7.516-16.875-16.875-16.875h-51.948c-3.822-26.303-16.213-49.771-34.275-67.5h86.224c9.359,0,16.875-7.583,16.875-16.875
	c0-9.297-7.516-16.875-16.875-16.875H423.797z M423.797,450.854c-9.364,0-16.875,7.578-16.875,16.875
	c0,9.291,7.511,16.875,16.875,16.875h101.25c9.359,0,16.875-7.584,16.875-16.875c0-9.297-7.516-16.875-16.875-16.875H423.797z
	 M379.5,811.886c-6.594-0.792-13.25,2.239-16.677,8.307l-16.875,29.266c-4.683,8.042-1.912,18.323,6.13,23.006
	c2.636,1.516,5.536,2.307,8.438,2.307c5.797,0,11.469-3.031,14.567-8.438l16.875-29.266c4.678-8.041,1.975-18.391-6.13-23.072
	C383.781,812.875,381.672,812.151,379.5,811.886z M704.344,811.886c-2.177,0.266-4.354,0.989-6.328,2.109
	c-8.109,4.682-10.813,15.031-6.13,23.135l16.875,29.203c3.094,5.406,8.766,8.438,14.567,8.438c2.896,0,5.797-0.724,8.438-2.307
	c8.104-4.615,10.808-14.964,6.13-23.006l-16.875-29.203C717.526,814.192,710.87,811.094,704.344,811.886z M629.458,844.776
	c-2.177-0.328-4.484-0.198-6.786,0.463c-8.969,2.375-14.308,11.667-11.933,20.631l8.766,32.63
	c2.042,7.516,8.834,12.526,16.281,12.526c1.516,0,2.969-0.198,4.417-0.594c8.964-2.438,14.37-11.667,11.933-20.631l-8.703-32.63
	C641.589,850.38,635.917,845.703,629.458,844.776z M454.448,844.776c-6.526,0.927-12.198,5.604-14.042,12.396l-8.703,32.63
	c-2.438,8.964,2.969,18.193,11.933,20.631c1.453,0.396,2.9,0.594,4.416,0.594c7.386,0,14.24-5.011,16.281-12.526l8.766-32.63
	c2.375-8.964-2.963-18.256-11.927-20.631C458.927,844.578,456.62,844.516,454.448,844.776z M541.922,855.854
	c-9.364,0-16.875,7.578-16.875,16.875v33.75c0,9.291,7.511,16.875,16.875,16.875c9.359,0,16.875-7.584,16.875-16.875v-33.75
	C558.797,863.433,551.281,855.854,541.922,855.854z"/>
</svg>
