<svg width="200" height="66" viewBox="0 0 200 66" fill="none" xmlns="http://www.w3.org/2000/svg">
<path d="M74.72 53.94V40.98L73.06 40.84V39.84H75.6C75.9067 39.84 76.3133 39.82 76.82 39.78C77.7533 39.7267 78.5067 39.7 79.08 39.7C80.72 39.7 81.98 40.0467 82.86 40.74C83.7533 41.42 84.2 42.5867 84.2 44.24C84.2 45.24 83.94 46.1133 83.42 46.86C82.9 47.6067 82.2133 48.18 81.36 48.58C80.52 48.98 79.6267 49.18 78.68 49.18H77.72C77.1067 49.18 76.7 49.2 76.5 49.24V53.94L79.14 54.2V55H72.84V54.2L74.72 53.94ZM76.48 48.14C76.9733 48.22 77.6467 48.26 78.5 48.26C79.6733 48.2467 80.6133 47.9467 81.32 47.36C82.0267 46.7733 82.38 45.74 82.38 44.26C82.38 43.0867 82.06 42.2067 81.42 41.62C80.78 41.02 79.8467 40.72 78.62 40.72C77.6867 40.72 76.9733 40.78 76.48 40.9V48.14ZM86.0958 53.94L91.2358 39.82H92.7558L97.6958 53.94L99.2758 54.2V55H94.2158V54.2L95.8358 53.94L94.7358 50.7H88.7358L87.6358 53.94L89.2758 54.2V55H84.6958V54.2L86.0958 53.94ZM92.6158 44.46L91.7758 41.74L89.0958 49.62H94.3558L92.6158 44.46ZM107.965 39.7C108.872 39.7 109.638 39.7533 110.265 39.86C110.892 39.9667 111.385 40.0667 111.745 40.16C112.105 40.2533 112.332 40.3133 112.425 40.34L112.265 43.12H111.305L110.825 41.46C110.665 41.2867 110.278 41.1267 109.665 40.98C109.065 40.82 108.318 40.7467 107.425 40.76C106.452 40.7733 105.545 41.0467 104.705 41.58C103.878 42.1 103.218 42.86 102.725 43.86C102.232 44.8467 101.985 46.0067 101.985 47.34C101.985 48.5667 102.185 49.7133 102.585 50.78C102.985 51.8333 103.585 52.6867 104.385 53.34C105.198 53.98 106.185 54.3 107.345 54.3C108.025 54.3 108.665 54.2267 109.265 54.08C109.878 53.92 110.352 53.66 110.685 53.3V49.14L108.225 48.98V48.08H113.705V48.98L112.465 49.16V54.22C112.292 54.2333 112.045 54.2867 111.725 54.38C111.418 54.46 111.218 54.5133 111.125 54.54C110.232 54.78 109.472 54.96 108.845 55.08C108.232 55.2133 107.592 55.28 106.925 55.28C105.605 55.28 104.425 54.9667 103.385 54.34C102.358 53.7 101.558 52.82 100.985 51.7C100.412 50.58 100.125 49.3133 100.125 47.9C100.125 46.2733 100.478 44.84 101.185 43.6C101.892 42.36 102.838 41.4 104.025 40.72C105.225 40.04 106.538 39.7 107.965 39.7ZM116.965 53.94V40.9L115.325 40.74V39.84H125.485L125.765 42.64H124.745L124.285 40.92L118.725 40.8V46.56L122.465 46.48L122.745 44.94H123.685V49.14H122.745L122.465 47.58L118.725 47.52V54L124.705 53.84L125.665 51.74L126.545 51.96L126.105 55H115.285V54.2L116.965 53.94ZM133.156 55.22C132.249 55.22 131.356 55.1333 130.476 54.96C129.596 54.7733 128.996 54.5867 128.676 54.4V51.32H129.496L130.076 53.28C130.436 53.6533 130.909 53.92 131.496 54.08C132.082 54.2267 132.709 54.3 133.376 54.3C134.229 54.3 134.962 54.08 135.576 53.64C136.202 53.1867 136.516 52.5133 136.516 51.62C136.516 51.0867 136.349 50.6133 136.016 50.2C135.696 49.7733 135.296 49.4 134.816 49.08C134.336 48.76 133.689 48.38 132.876 47.94C132.009 47.4867 131.296 47.0733 130.736 46.7C130.176 46.3133 129.709 45.8533 129.336 45.32C128.962 44.7867 128.776 44.1733 128.776 43.48C128.776 42.6267 129.016 41.92 129.496 41.36C129.989 40.7867 130.596 40.3667 131.316 40.1C132.036 39.8333 132.762 39.7 133.496 39.7C134.376 39.7 135.142 39.78 135.796 39.94C136.449 40.0867 136.949 40.26 137.296 40.46V43.14H136.496L135.796 41.24C135.556 41.0267 135.216 40.8667 134.776 40.76C134.349 40.6533 133.882 40.6 133.376 40.6C132.936 40.6 132.489 40.6867 132.036 40.86C131.582 41.0333 131.196 41.3133 130.876 41.7C130.569 42.0867 130.416 42.58 130.416 43.18C130.416 43.8733 130.702 44.4733 131.276 44.98C131.862 45.4733 132.709 46 133.816 46.56C134.776 47.0667 135.542 47.5067 136.116 47.88C136.689 48.2533 137.176 48.7133 137.576 49.26C137.989 49.7933 138.196 50.4133 138.196 51.12C138.196 52.4933 137.722 53.52 136.776 54.2C135.829 54.88 134.622 55.22 133.156 55.22Z" fill="#4480A0"/>
<path d="M37.9068 0.288236C38.1467 0.365429 38.6265 0.365429 38.9063 0.288236C39.1462 0.172446 38.9463 0.0952533 38.3866 0.0952533C37.8269 0.0952533 37.627 0.172446 37.9068 0.288236Z" fill="#4B7189"/>
<path d="M28.8654 0.172446C28.9853 0.326832 28.3856 0.6742 27.546 0.944375C25.667 1.44613 25.1073 1.48473 25.9069 0.982972C26.4266 0.6742 26.4266 0.597007 25.8269 0.597007C24.8674 0.597007 24.6275 1.21455 25.3471 1.7935C25.8669 2.17946 26.3067 2.10227 27.9858 1.29174C29.585 0.558411 29.8649 0.288236 29.3451 0.0952531C28.9853 -0.0591328 28.7454 -0.0205362 28.8654 0.172446Z" fill="#4B7189"/>
<path d="M39.9237 0.693511C41.283 1.11807 42.3225 1.11807 41.323 0.693511C40.8832 0.500529 40.1636 0.38474 39.7238 0.38474C39.0841 0.38474 39.1241 0.461933 39.9237 0.693511Z" fill="#4B7189"/>
<path d="M29.6251 1.13735C28.7055 1.6777 27.6261 2.14086 27.2263 2.25665C26.5466 2.41103 26.5466 2.41103 27.1863 2.68121C27.6261 2.87419 28.4657 2.56542 29.6651 1.75489C30.7045 1.09875 31.5041 0.481211 31.5041 0.404018C31.5041 0.133842 31.4242 0.133842 29.6251 1.13735Z" fill="#4B7189"/>
<path d="M31.3045 1.33036C30.7048 1.9865 29.8252 2.56545 29.3454 2.64264C28.5458 2.75843 28.5458 2.79703 29.2655 3.1058C30.185 3.49176 30.9047 3.0672 31.9441 1.44615C32.9836 -0.0977104 32.7837 -0.136307 31.3045 1.33036Z" fill="#4B7189"/>
<path d="M33.1034 1.0602C33.1034 1.29178 32.7036 1.90932 32.2239 2.41108L31.3843 3.2988H32.5437C33.6631 3.2988 33.7431 3.2216 33.5832 1.94792C33.4233 0.674238 33.1034 0.056694 33.1034 1.0602Z" fill="#4B7189"/>
<path d="M34.1431 1.75492C34.463 3.45316 34.423 3.37597 35.7823 3.18299C36.7818 3.0286 36.8218 2.99001 36.0622 2.75843C35.6224 2.60404 34.9427 2.02509 34.5429 1.44615L33.8633 0.404043L34.1431 1.75492Z" fill="#4B7189"/>
<path d="M36.0623 1.67772C36.8219 2.44965 37.6215 2.91281 38.2612 2.91281H39.3006L38.3011 2.41106C37.7414 2.14088 36.7819 1.56193 36.1022 1.17597L34.9028 0.442637L36.0623 1.67772Z" fill="#4B7189"/>
<path d="M38.8205 1.75491C40.0998 2.44964 40.4197 2.48824 41.0993 2.02508C41.819 1.52333 41.779 1.52333 40.5796 1.48473C39.8599 1.48473 38.8604 1.36894 38.3007 1.21456C37.661 1.02157 37.821 1.21456 38.8205 1.75491Z" fill="#4B7189"/>
<path d="M17.5513 3.91629C15.5523 4.9198 13.9131 5.88471 13.9131 6.0391C13.9131 6.57945 14.2729 6.46366 15.5922 5.57594C16.2319 5.11279 17.991 4.14787 19.4303 3.45314C20.9096 2.7584 21.9091 2.17945 21.6292 2.14086C21.3893 2.14086 19.5103 2.95138 17.5513 3.91629Z" fill="#B58C54"/>
<path d="M19.2206 3.9184C17.1016 5.42367 16.9717 5.38508 15.9522 6.08946L14.9927 6.62016L15.9522 7.3535C16.5519 7.81665 17.0716 7.97104 17.3515 7.73946C17.5914 7.54648 19.0706 6.50437 20.5899 5.38508C24.0282 2.9149 23.7183 3.34652 23.1486 3.06929C21.9192 2.47104 22.369 2.18156 19.2206 3.9184Z" fill="#B58C54"/>
<path d="M26.9867 5.16105L23.2386 9.72089L25.1477 9.55141C22.7888 9.43562 22.389 10.0146 24.6279 10.4005C27.2666 10.8251 27.3466 10.7865 28.3461 8.20053C28.8658 6.88825 29.3456 5.69176 29.4255 5.49878C29.5055 5.34439 27.1866 5.16105 26.9867 5.16105C23.2386 9.72089 23.1471 9.83225 26.9867 5.16105Z" fill="#B58C54"/>
<path d="M8.55567 10.2847C7.11639 11.79 5.91699 13.3724 5.91699 13.797C5.91699 14.4145 6.11689 14.2988 6.99645 13.2567C7.55617 12.5619 9.03543 10.9795 10.2748 9.74438C11.7141 8.3549 12.2738 7.54438 11.834 7.54438C11.4742 7.54438 9.99495 8.77946 8.55567 10.2847Z" fill="#4480A0"/>
<path d="M53.8931 8.89525C53.8931 9.04964 58.091 14.2216 59.3303 15.611C59.4103 15.6882 59.8501 15.4567 60.2499 15.1093C61.0095 14.4531 60.9295 14.376 58.1709 11.5584C56.6117 9.97596 55.0125 8.70227 54.6127 8.70227C54.2129 8.70227 53.8931 8.77946 53.8931 8.89525Z" fill="#4480A0"/>
<path d="M9.55509 12.4461C6.87642 15.2251 6.7165 15.4567 7.39616 15.9584C9.31521 17.3479 9.39517 17.3093 11.1543 14.8005C12.0738 13.4496 13.2732 11.9058 13.8329 11.3268C14.9524 10.1303 14.9524 10.0532 13.4731 9.74438C12.5536 9.5128 12.0738 9.86017 9.55509 12.4461Z" fill="#4480A0"/>
<path d="M51.7741 10.6707C51.3743 10.9022 50.7746 10.9794 50.4547 10.8636C49.6551 10.5549 49.6951 10.5935 51.6142 13.411C52.5337 14.8005 53.6132 16.4601 53.973 17.1549L54.6526 18.39L56.1719 17.7724C58.3708 16.8847 58.4507 16.6917 57.0115 15.0707C53.3733 10.9408 52.5337 10.2461 51.7741 10.6707Z" fill="#4480A0"/>
<path d="M14.8324 12.8321C14.1927 13.6426 13.2332 14.9549 12.7534 15.7268C12.2737 16.5374 11.674 17.1935 11.4741 17.1935C11.2742 17.1935 11.1143 17.3479 11.1143 17.5795C11.1143 17.8882 14.6725 19.1233 15.712 19.1233C15.9518 19.1233 16.9913 17.4637 18.0308 15.4567C19.67 12.2531 19.7899 11.79 19.1502 11.79C18.7504 11.79 17.8709 11.6742 17.2312 11.5584C16.1917 11.3654 15.8719 11.5198 14.8324 12.8321Z" fill="#4581A1"/>
<path d="M22.2302 4.75175C21.5495 5.28726 20.5111 6.16757 19.9713 6.70019C19.4246 7.26363 18.8049 7.68284 18.6374 7.64792C18.47 7.613 18.3084 7.70835 18.267 7.89328C18.2119 8.13985 20.9723 9.74769 21.8432 9.92927C22.0441 9.97117 23.2115 8.82743 24.4409 7.4063C26.3865 5.13447 26.5698 4.78557 26.0338 4.67383C25.6989 4.60399 24.9827 4.35788 24.4674 4.15368C23.631 3.81799 23.3355 3.88541 22.2302 4.75175Z" fill="#B58C54"/>
<path d="M46.0571 12.3689L44.0581 12.7549L45.2975 16.1128C45.9771 17.9654 46.6168 19.5865 46.7767 19.7023C46.8967 19.818 48.176 19.7409 49.6553 19.4707C52.214 19.0461 53.2135 18.5444 52.4139 18.004C52.214 17.8882 51.2945 16.4988 50.335 14.9549C49.3754 13.411 48.4959 12.0988 48.336 12.0602C48.216 11.983 47.1765 12.1373 46.0571 12.3689Z" fill="#4480A0"/>
<path d="M21.3091 13.4497C20.9893 13.9128 20.3496 15.1479 19.8699 16.2286C19.3901 17.2707 18.8304 18.2742 18.5905 18.39C17.7509 18.9303 18.7104 19.8181 20.3896 20.0111C21.7889 20.1654 22.3886 20.0111 23.668 19.1233C25.0273 18.2356 25.3871 17.6953 25.9868 15.6496C26.3466 14.2988 26.6265 13.1409 26.5865 13.1023C26.5465 13.1023 25.4671 12.9479 24.1877 12.8321C22.1487 12.6391 21.8289 12.7163 21.3091 13.4497Z" fill="#4581A1"/>
<path d="M38.3807 13.2181L36.2617 13.3725L36.3817 14.8005C36.5016 16.0742 36.6615 16.2286 38.4206 16.8461C39.5001 17.2321 41.1793 18.0426 42.2187 18.6988C44.2577 19.9724 44.5776 19.8567 43.8579 18.1198C43.5781 17.5023 43.3382 16.9233 43.3382 16.8075C43.2982 16.6917 43.1383 16.383 42.9784 16.1128C42.7785 15.8812 42.7385 15.6496 42.8584 15.6496C42.9784 15.6496 42.7385 15.0707 42.3387 14.376C41.5791 13.0251 41.4991 13.0251 38.3807 13.2181Z" fill="#4480A0"/>
<path d="M28.0262 15.1093L27.5864 16.8847L28.6659 16.6532C29.2256 16.4988 30.7448 16.3058 32.0242 16.1514C34.3031 15.9198 34.3031 15.9198 34.3031 14.6461V13.3339H31.3845H28.426L28.0262 15.1093Z" fill="#4480A0"/>
<path d="M2.51871 18.2356C1.31931 20.7444 0.559689 23.4847 0.799569 24.218C0.919509 24.4882 1.23935 24.0251 1.51921 23.1759C1.79907 22.3268 2.63865 20.4742 3.35829 19.0461C4.91751 16.0742 4.91751 16.0356 4.15789 16.0356C3.83805 16.0356 3.11841 17.0391 2.51871 18.2356Z" fill="#726183"/>
<path d="M61.6492 17.5023L60.8096 18.197L61.6891 19.9338C62.1689 20.8602 62.8885 22.597 63.3283 23.7549C64.2479 26.4181 64.1279 26.3409 65.1274 25.4531C65.7271 24.9514 65.887 24.4496 65.7271 23.6777C65.4073 22.211 63.0884 16.8075 62.7686 16.8075C62.6087 16.8461 62.0889 17.1549 61.6492 17.5023Z" fill="#726183"/>
<path d="M3.91795 19.7794C2.67857 22.4426 1.91895 24.5268 1.91895 25.2987C1.91895 25.9549 4.15783 27.6145 5.03739 27.6145C5.23729 27.6145 5.55713 26.997 5.67707 26.2637C5.83699 25.5303 6.47667 23.6391 7.11635 22.1338C7.75603 20.59 8.23579 19.3549 8.19581 19.3549C8.15583 19.3163 7.51615 19.0075 6.79651 18.6216C6.03689 18.2742 5.27727 17.9654 5.11735 17.9654C4.91745 17.9654 4.35773 18.7759 3.91795 19.7794Z" fill="#726183"/>
<path d="M57.771 20.0497C56.4117 20.59 55.892 21.0146 56.0519 21.4391C56.1718 21.7479 56.7316 23.5619 57.3313 25.4918C57.931 27.383 58.4507 29.004 58.4907 29.0812C58.7306 29.3514 63.0884 27.2286 63.0884 26.8812C63.0884 26.1093 60.6096 19.9339 60.1698 19.5865C59.85 19.3935 58.9704 19.5479 57.771 20.0497Z" fill="#726183"/>
<path d="M8.91547 21.6707C7.79603 24.2952 6.71657 28.1549 6.99643 28.4251C7.35625 28.7338 12.7935 30.3935 12.9135 30.2391C12.9535 30.1619 13.3932 28.5408 13.873 26.6496C14.3528 24.7198 14.8325 22.79 14.9525 22.2882C15.1524 21.5935 15.0324 21.4391 14.2728 21.4391C13.7531 21.4391 12.4737 21.1689 11.3942 20.8602L9.51517 20.3198L8.91547 21.6707Z" fill="#726183"/>
<path d="M50.2147 22.1339C48.6955 22.4427 47.4961 22.9058 47.4961 23.1374C47.4961 23.369 47.8559 24.797 48.2957 26.2637C48.7355 27.7304 49.0953 29.4286 49.0953 30.0076C49.0953 31.2812 48.8554 31.2427 53.0533 30.4321L56.3717 29.8146L56.1318 28.4637C56.0118 27.7304 55.5321 25.8391 55.0523 24.2953C54.0928 21.0918 54.3327 21.2076 50.2147 22.1339Z" fill="#726183"/>
<path d="M106.569 21.2976C106.512 25.8825 106.37 29.8478 106.228 30.1266C106.029 30.6222 106.143 30.6842 107.165 30.6842C108.414 30.6842 108.47 30.6222 108.045 29.8168C107.732 29.2282 107.222 17.0536 107.534 16.8677C107.619 16.8057 108.442 17.6112 109.379 18.6644C114.488 24.6743 120.108 30.6532 120.363 30.3744C120.505 30.2195 120.675 26.564 120.76 22.0411L120.902 13.9867L121.583 13.7388C122.038 13.553 121.498 13.491 119.966 13.491C118.319 13.491 117.894 13.553 118.518 13.7388C119.199 13.9247 119.398 14.1725 119.54 14.978C119.767 16.434 119.852 27.5863 119.653 27.5244C119.54 27.4624 116.616 24.1787 113.154 20.2134C109.691 16.2791 106.796 13.0263 106.739 13.0263C106.682 13.0263 106.597 16.7438 106.569 21.2976Z" fill="#4480A0"/>
<path d="M152.169 13.4977C148.53 14.013 146.03 16.0741 145.197 19.2265C143.892 24.1673 146.141 28.9261 150.447 30.3205C151.974 30.8054 156.613 30.8054 157.891 30.3205L158.918 29.9264L158.946 26.8347C158.974 25.1372 159.057 23.4398 159.168 23.0457C159.307 22.4395 159.224 22.3789 158.224 22.3789H157.168L157.28 25.7738C157.391 29.8658 157.335 29.9567 154.419 29.9567C151.113 29.9567 148.586 28.1987 147.308 25.016C146.475 22.9548 146.336 20.9846 146.864 18.9537C147.752 15.5891 149.808 14.0736 153.474 14.1039C155.724 14.1342 158.002 14.9526 158.307 15.8316C158.613 16.7107 158.974 16.3166 158.974 15.1648V13.9826L156.363 13.6492C154.919 13.437 153.558 13.3158 153.363 13.3158C153.169 13.3461 152.641 13.437 152.169 13.4977Z" fill="#4480A0"/>
<path d="M170.061 13.508C167.178 14.1525 165.51 15.5028 164.295 18.1728C163.56 19.738 163.418 20.4132 163.418 22.2545C163.418 27.6866 167.206 31.3693 172.322 30.9397C176.986 30.51 180.181 26.8579 180.209 21.9476C180.237 19.0935 179.757 17.7739 178.117 15.9939C176.167 13.8763 172.888 12.8635 170.061 13.508ZM174.951 14.9197C178.909 17.4363 179.559 25.4155 176.054 28.7607C174.612 30.1417 173.029 30.5714 171.05 30.111C168.817 29.62 167.432 28.4538 166.33 26.1214C165.51 24.4028 165.397 23.9118 165.397 21.7021C165.425 17.3442 166.867 14.9811 170.061 14.0911C171.418 13.7228 173.623 14.0911 174.951 14.9197Z" fill="#4480A0"/>
<path d="M189.77 13.5179C185.774 14.3819 183.073 18.1462 183.214 22.5893C183.326 25.9526 184.874 28.6678 187.463 30.0563C189.601 31.1979 193.09 31.2905 195.201 30.2414C196.917 29.3775 198.634 27.4645 199.393 25.5823C200.153 23.7618 200.209 20.0901 199.506 18.3313C198.099 14.783 193.737 12.6231 189.77 13.5179ZM193.344 14.2585C195.032 14.8139 196.664 16.4492 197.452 18.393C198.211 20.2752 198.268 24.163 197.564 26.1994C195.454 32.2161 187.744 31.5682 185.69 25.1812C185.183 23.6693 185.099 20.0592 185.521 18.4548C186.112 16.3258 187.772 14.6596 189.911 14.0733C191.233 13.7339 191.824 13.7648 193.344 14.2585Z" fill="#4480A0"/>
<path d="M16.7116 23.7163C16.4717 24.4882 16.0719 26.3023 15.832 27.7303C15.4322 29.9689 15.4322 30.4321 15.912 30.7022C17.0314 31.397 17.3913 31.0882 17.6311 29.1198C17.831 27.5759 19.0304 24.5268 20.1899 22.597C20.2698 22.4812 19.5902 22.3654 18.7106 22.3654C17.2313 22.2882 17.1114 22.3654 16.7116 23.7163Z" fill="#726183"/>
<path d="M70.8268 13.6967C71.1639 13.7577 71.6414 14.0321 71.8943 14.3369C72.1471 14.6418 73.2988 18.1477 74.4224 22.1718C77.091 31.4701 76.9225 30.9823 77.3719 30.4336C77.5405 30.1897 78.6922 27.1716 79.9282 23.7876C81.1361 20.3732 82.2316 17.538 82.4001 17.477C82.5406 17.4465 82.7372 17.7209 82.8496 18.1477C83.1024 19.3062 86.8665 30.2202 87.0632 30.4336C87.4564 30.8604 87.9059 29.7019 90.2093 22.4157C91.5296 18.2391 92.7937 14.6113 93.0465 14.3064C93.2712 14.0321 93.7487 13.7577 94.0858 13.6967C94.3948 13.6358 93.6083 13.6053 92.3161 13.6053C91.024 13.6053 90.2655 13.6662 90.6307 13.7577C90.9959 13.8492 91.333 14.154 91.3891 14.3979C91.4734 14.9162 88.1587 26.8667 87.8216 27.2325C87.7093 27.385 86.6137 24.4583 85.4058 20.7695C84.1698 17.0807 83.0181 14.0626 82.8496 14.0626C82.681 14.0626 81.5012 17.0197 80.2091 20.6171C78.0461 26.7447 77.4281 27.9032 77.2315 26.3789C77.1753 26.0741 76.5854 23.6657 75.8831 21.0743C74.1696 14.5808 74.1134 14.1235 74.8157 13.8492C75.1528 13.6967 74.31 13.6053 72.8212 13.6053C71.3886 13.6053 70.5178 13.6358 70.8268 13.6967Z" fill="#4581A1"/>
<path d="M97.0484 13.9135C97.675 14.2216 97.7064 14.4682 97.7064 21.9263C97.7064 26.1793 97.6437 29.8468 97.5497 30.0933C97.4244 30.4632 97.7377 30.5864 98.9282 30.6481C100.307 30.7405 100.432 30.6789 100.181 30.1858C99.8681 29.5386 99.6175 15.855 99.8994 14.7456C99.9934 14.3757 100.338 13.9443 100.683 13.821C100.996 13.6977 100.181 13.6053 98.8342 13.6053C96.9545 13.6053 96.5472 13.6669 97.0484 13.9135Z" fill="#4581A1"/>
<path d="M126.477 21.412C126.477 25.7574 126.392 29.6132 126.307 29.9804C126.137 30.623 126.222 30.6842 127.184 30.6842C128.09 30.6842 128.204 30.5924 128.005 30.1334C127.807 29.6438 127.269 17.1891 127.439 17.0055C127.496 16.9443 128.713 18.2601 130.185 19.882C135.168 25.5126 140.01 30.6842 140.321 30.6842C140.519 30.6842 140.661 28.0219 140.689 22.5137C140.774 14.588 140.802 14.3126 141.369 14.0065C141.793 13.7617 141.425 13.7005 139.67 13.7005C138.396 13.7005 137.716 13.7311 138.141 13.7923C138.537 13.8535 139.019 14.0677 139.16 14.2514C139.415 14.6186 139.953 27.6241 139.698 27.6241C139.585 27.6241 137.801 25.6656 130.865 17.8317C128.826 15.5672 127.015 13.6699 126.845 13.6087C126.562 13.5169 126.477 15.2306 126.477 21.412Z" fill="#4480A0"/>
<path d="M0 27.6145C0 28.1549 0.07996 28.3479 0.1999 28.0777C0.27986 27.8461 0.27986 27.383 0.1999 27.1128C0.07996 26.8812 0 27.0742 0 27.6145Z" fill="#4581A1"/>
<path d="M65.5673 28.5795C65.0875 28.8111 64.7677 29.197 64.8876 29.4672C65.0075 29.776 65.0875 31.7444 65.1275 33.8672L65.1675 37.7654L66.007 36.9163C66.6867 36.2602 66.8866 35.5268 67.0065 33.2883C67.0865 31.783 67.0065 29.969 66.8066 29.3514C66.5268 28.3093 66.3669 28.2321 65.5673 28.5795Z" fill="#4480A0"/>
<path d="M0.959607 29.39C0.839667 29.7374 0.719727 31.5128 0.719727 33.404C0.719727 37.1093 0.919627 37.5338 3.15851 38.6145L4.31793 39.2321V35.6426C4.31793 33.6742 4.43787 31.6672 4.55781 31.1654C4.75771 30.5479 4.63777 30.3163 4.11803 30.3163C3.75821 30.3163 2.91863 29.9689 2.31893 29.5444C1.31943 28.8882 1.15951 28.8496 0.959607 29.39Z" fill="#4581A1"/>
<path d="M61.2093 31.204L59.1304 32.0531L59.2103 36.3374L59.2903 40.6602L61.2893 39.8882C62.4087 39.4637 63.4082 39.0391 63.5682 38.8847C64.1279 38.3444 64.1679 30.3163 63.6081 30.3549C63.4082 30.3549 62.3688 30.7409 61.2093 31.204Z" fill="#4480A0"/>
<path d="M6.11697 32.3619C5.99703 32.8251 5.91707 34.7549 5.99703 36.6847L6.11697 40.1584L9.11547 40.9689C11.1545 41.5479 12.154 41.6637 12.1939 41.3549C12.2339 41.1233 12.3539 39.0777 12.4338 36.8005C12.5138 33.983 12.4338 32.7479 12.154 32.8637C11.9141 32.9409 10.5148 32.6707 9.03551 32.2847L6.31687 31.5128L6.11697 32.3619Z" fill="#4581A1"/>
<path d="M54.2931 33.211C53.0936 33.5198 51.4944 33.79 50.8148 33.8672L49.4954 33.9444V38.3058C49.4954 43.3619 49.1756 43.0917 54.0932 41.9724L56.8918 41.3163L57.0917 39.7338C57.3715 37.8426 57.0917 32.6321 56.7318 32.6707C56.6119 32.6707 55.4925 32.9409 54.2931 33.211Z" fill="#4480A0"/>
<path d="M14.7124 37.997V42.204L15.8318 42.4356C16.4315 42.5514 17.7109 42.7443 18.7104 42.8601C19.7099 42.9759 20.9893 43.1689 21.6289 43.2847C22.2686 43.4005 22.7084 43.3233 22.7084 43.0917C22.7084 42.8601 22.4685 42.6671 22.1887 42.6671C20.9493 42.6671 17.0312 34.7935 17.591 33.8672C17.591 33.8672 16.6414 33.7236 17.2411 34.0131C16.4915 33.5777 17.5556 34.3798 17.591 33.7514H14.7124V37.997Z" fill="#4581A1"/>
<path d="M64.9276 41.0847C64.5678 41.7408 64.288 42.3584 64.288 42.4742C64.3279 42.8987 63.7682 44.79 63.5283 45.1759C63.0486 45.8707 62.289 47.6847 62.4889 47.6847C62.7687 47.6847 64.9276 43.4391 65.4874 41.7794C66.0871 39.9268 65.7672 39.5022 64.9276 41.0847Z" fill="#BC6C6F"/>
<path d="M1.51904 40.8917C1.51904 41.6636 3.43808 46.5654 4.03778 47.2987C4.63748 48.0707 6.35663 49.2285 6.87637 49.2285C7.07627 49.2285 6.87637 48.8426 6.39661 48.3408C5.47706 47.4145 4.31764 44.597 4.31764 43.4005C4.31764 42.9759 3.91784 42.3584 3.47806 41.9724C2.9983 41.625 2.3986 41.0847 2.07876 40.8145C1.599 40.39 1.51904 40.39 1.51904 40.8917Z" fill="#BC6C6F"/>
<path d="M46.2981 40.941C46.0272 41.3329 45.2811 41.9279 44.6069 42.174C43.6174 42.6198 45.031 42.4521 45.7532 42.5525C47.2383 42.791 47.2467 42.1947 47.2219 41.1143C47.1953 39.9567 47.0345 39.9215 46.2981 40.941Z" fill="#4581A1"/>
<path d="M62.8888 41.8953C62.7289 42.1268 61.9293 42.59 61.0897 42.8988C59.6504 43.4777 59.5305 43.6321 58.8908 46.1409C58.531 47.6075 57.8913 49.0742 57.4515 49.4602C56.1322 50.5795 56.6119 50.7725 58.7309 49.9233C60.9697 48.997 61.3695 48.4567 62.6489 44.4426C63.4485 41.9725 63.5285 40.8532 62.8888 41.8953Z" fill="#BC6C6F"/>
<path d="M6.55677 43.7092C7.23643 46.797 8.47581 49.6917 9.23543 50.1549C10.4348 50.8496 13.8731 51.6987 14.2329 51.3899C14.3929 51.2356 14.4528 51.4298 14.093 51.2368C13.5333 50.928 13.3809 48.7763 12.4438 45.1578C12.2839 44.5403 11.4343 44.5584 10.035 44.2496C8.95557 43.9794 7.71619 43.5163 7.19645 43.2075C6.31689 42.6671 6.31689 42.6671 6.55677 43.7092Z" fill="#BC6C6F"/>
<path d="M113.783 43.7093C114.063 43.8251 114.423 43.7865 114.543 43.6707C114.703 43.5549 114.463 43.4391 114.023 43.4777C113.583 43.4777 113.463 43.5935 113.783 43.7093Z" fill="#7BCADB"/>
<path d="M119.78 43.7093C120.06 43.8251 120.42 43.7865 120.54 43.6707C120.7 43.5549 120.46 43.4391 120.02 43.4777C119.58 43.4777 119.46 43.5935 119.78 43.7093Z" fill="#7BCADB"/>
<path d="M153.763 43.7093C154.043 43.8251 154.403 43.7865 154.523 43.6707C154.683 43.5549 154.443 43.4391 154.003 43.4777C153.563 43.4777 153.443 43.5935 153.763 43.7093Z" fill="#7BCADB"/>
<path d="M54.4929 44.8286C53.4134 45.0987 51.8142 45.4075 50.9746 45.5619C49.4954 45.7935 48.296 45.8622 49.2555 46.171C49.8952 46.364 49.8152 45.4021 49.0556 46.0968C48.7357 46.4442 47.3147 54.6321 48.0344 52.0461C48.6741 52.0461 49.0956 51.2356 48.3359 51.8145C47.2165 52.5864 48.0161 52.6636 51.0946 52.0461C52.9736 51.6987 54.3329 51.197 54.7327 50.7724C55.3324 50.0777 56.9716 44.6742 56.6518 44.4812C56.5718 44.404 55.6123 44.5584 54.4929 44.8286Z" fill="#BC6C6F"/>
<path d="M15.3126 46.99C16.0722 52.2005 16.2321 52.3549 21.2296 52.8566C24.0682 53.1654 24.548 52.8566 23.2686 51.6601C22.8288 51.197 23.4068 53.0496 23.7267 52.8566C24.2064 52.5479 23.2686 46.1022 22.7489 46.218C22.1891 46.3724 17.0317 45.7163 16.0722 45.3689L15.0327 44.9829L15.3126 46.99Z" fill="#BC6C6F"/>
<path d="M46.2168 45.9865C46.0569 46.1023 44.1379 46.3724 41.859 46.5654C39.6201 46.7198 37.741 46.9514 37.7011 46.99C37.6211 47.0672 37.5012 48.5724 37.4212 50.3479L37.3013 53.59L41.2593 53.3198C43.4582 53.204 45.3772 52.8952 45.4972 52.6637C45.817 52.1619 46.8165 46.1023 46.5766 45.9093C46.4967 45.8321 46.3368 45.8707 46.2168 45.9865Z" fill="#BC6C6F"/>
<path d="M26.0267 49.5759C26.1467 51.2742 26.3466 52.818 26.5065 53.0496C26.6664 53.3198 28.3456 53.4742 30.7444 53.4742H34.7024V50.4637L34.7024 47.1444H32.9832C32.1437 47.2216 27.386 46.9526 26.0267 46.6052C25.637 46.5056 25.7469 46.1023 26.0267 49.5759Z" fill="#BC6C6F"/>
<path d="M6.51689 51.197C8.07611 53.0882 10.9547 55.8672 11.7143 56.2531C12.6738 56.7935 7.87621 51.6602 6.59685 50.811L5.71729 50.2321L6.51689 51.197Z" fill="#4480A0"/>
<path d="M57.4114 52.3549C56.5718 52.8181 55.5323 53.7444 55.0925 54.4777C54.6128 55.1725 53.5733 56.2917 52.7737 56.9479L51.2944 58.1444L52.6937 57.6426C54.133 57.1795 57.7712 53.9374 58.6508 52.3935C58.8906 51.9303 59.0506 51.5444 59.0106 51.583C58.9306 51.583 58.211 51.9303 57.4114 52.3549Z" fill="#4480A0"/>
<path d="M10.5549 53.3584C12.0742 55.7514 14.5929 57.9514 16.312 58.4531C18.311 59.0321 18.7508 58.8005 17.3915 57.9514C16.8718 57.604 16.1121 56.6391 15.7123 55.79C15.1126 54.5163 14.6729 54.1689 13.3535 53.7829C12.434 53.5128 11.2746 53.0496 10.7148 52.7408L9.71533 52.1233L10.5549 53.3584Z" fill="#4B7189"/>
<path d="M51.8939 54.0917C51.1343 54.3619 50.0948 54.5935 49.615 54.5935C48.0958 54.6321 47.4961 55.0953 46.8564 56.5233C46.5366 57.2567 45.8569 58.2988 45.4171 58.7619C44.4176 59.804 44.4176 59.7654 47.1763 59.2251C48.3357 58.9935 49.735 58.4146 50.2547 57.9514C51.2542 57.0637 53.653 53.8602 53.4131 53.7058C53.3732 53.6672 52.6535 53.8216 51.8939 54.0917Z" fill="#4480A0"/>
<path d="M17.5112 54.5163C17.5112 55.1724 19.95 58.8777 20.6297 59.2251C21.7091 59.7654 25.907 60.19 25.907 59.7268C25.907 59.4952 25.7471 59.2636 25.5072 59.1865C25.3073 59.1093 25.0675 58.6461 24.9475 58.1058C24.8676 57.5654 24.7476 57.0636 24.7076 56.9479C24.6677 56.8321 24.5877 56.4847 24.5477 56.1759C24.5077 55.7514 23.6682 55.4812 21.5092 55.211C19.8701 54.9794 18.2709 54.6707 18.031 54.5163C17.7511 54.3233 17.5112 54.3233 17.5112 54.5163Z" fill="#4480A0"/>
<path d="M42.6984 55.4812C41.6989 55.597 40.0598 55.7514 39.0203 55.7514C37.3011 55.79 37.1412 55.8672 36.9413 56.9479C36.8214 57.5654 36.5815 58.6461 36.4616 59.3409L36.2217 60.5374L38.3406 60.3058C39.54 60.1514 41.0193 60.0356 41.619 60.0356C42.5785 60.0356 42.8983 59.7654 43.7379 57.9128C44.2976 56.7549 44.6974 55.6356 44.6175 55.4812C44.5375 55.3268 43.6979 55.3268 42.6984 55.4812Z" fill="#4480A0"/>
<path d="M26.9464 56.7549C27.0663 57.3724 27.4261 58.4917 27.746 59.1479L28.2657 60.4216H31.2242H34.1827L34.4626 58.2602C34.6225 57.0637 34.6625 56.0216 34.6225 55.983C34.5426 55.9058 32.7435 55.79 30.5845 55.7128L26.6665 55.597L26.9464 56.7549Z" fill="#4480A0"/>
<path d="M49.2551 59.8812C48.5355 60.4215 48.5355 60.4601 49.415 60.0356C49.8948 59.804 50.2946 59.5338 50.2946 59.4566C50.2946 59.1479 50.0947 59.2251 49.2551 59.8812Z" fill="#4480A0"/>
<path d="M17.9111 60.19C17.9111 60.4988 20.9896 61.9654 21.5893 61.9654C21.8692 61.9654 21.5893 61.6181 20.9096 61.2321C19.5903 60.4602 17.9111 59.8426 17.9111 60.19Z" fill="#4480A0"/>
<path d="M45.2976 61.0005C43.0587 61.6952 40.38 63.0847 41.1796 63.1233C42.1392 63.1233 45.9772 61.6566 46.6969 60.9619C47.3765 60.3057 47.3765 60.3057 45.2976 61.0005Z" fill="#4480A0"/>
<path d="M22.7085 61.3865C23.0284 61.7338 22.9884 61.9268 22.6286 62.0812C22.3487 62.197 22.4687 62.2742 22.9084 62.2742C23.3482 62.2742 24.4277 62.5444 25.3072 62.8917C26.1868 63.2005 27.3462 63.4707 27.9059 63.5093C28.8655 63.5093 28.8255 63.4707 27.5061 62.6988C25.787 61.6566 22.1088 60.6917 22.7085 61.3865Z" fill="#4480A0"/>
<path d="M40.4997 61.5795C40.0599 61.7724 39.0204 61.9268 38.1409 61.9268C37.0614 61.9654 36.3817 62.2356 35.862 62.8145C35.4222 63.2391 35.1823 63.7023 35.2623 63.7795C35.782 64.3198 39.3403 63.2777 40.4597 62.3128C41.779 61.1549 41.779 61.0391 40.4997 61.5795Z" fill="#4480A0"/>
<path d="M28.7056 62.004C28.7056 62.1198 29.1054 62.583 29.6251 63.0461C30.2648 63.6251 31.0644 63.8952 32.2238 63.8952C33.1433 63.8952 33.903 63.7794 33.903 63.5865C33.903 63.4321 34.0229 62.9689 34.1428 62.5444C34.3427 61.811 34.1428 61.7724 31.5441 61.7724C29.9849 61.7724 28.7056 61.8882 28.7056 62.004Z" fill="#4480A0"/>
<path d="M33.7297 23.1579H24.6533C24.2966 23.1579 24.0052 23.4663 24.0052 23.8467L23.9878 38.7896C23.9878 39.1723 24.2771 39.4807 24.6359 39.4807H31.2936L31.4742 39.8588C31.5851 40.0907 31.807 40.2368 32.0527 40.2368H35.4457C35.6828 40.2368 35.9003 40.0977 36.0156 39.8773L36.2179 39.483H42.8299C43.1866 39.483 43.478 39.1746 43.478 38.7919V23.849C43.478 23.4686 43.1888 23.1579 42.8299 23.1579H33.7297Z" fill="#4480A0"/>
<path d="M33.7427 23.0468C33.627 23.1299 33.4785 23.1461 33.3497 23.086C32.6356 22.7533 30.2097 21.7135 27.917 21.7135H25.5915C25.3687 21.7135 25.1875 21.9053 25.1875 22.141V37.5439C25.1875 37.7796 25.3687 37.9714 25.5915 37.9714H32.7601C32.878 37.9714 32.9894 38.0245 33.0658 38.1193L33.258 38.3526C33.4174 38.5467 33.7012 38.5491 33.8628 38.3596L34.0768 38.1123C34.1532 38.0222 34.2624 37.9714 34.3759 37.9714H41.5555C41.7782 37.9714 41.9594 37.7796 41.9594 37.5439L41.9791 22.141C41.9791 21.903 41.7979 21.7112 41.5751 21.7112H39.123C39.123 21.7135 35.7254 21.6165 33.7427 23.0468Z" fill="white"/>
<path d="M33.6972 39.3684L33.0128 38.5332C32.9363 38.438 32.8248 38.3847 32.7067 38.3847H25.2922C25.0692 38.3847 24.8877 38.1921 24.8877 37.9555V21.5623C24.8877 21.3257 25.0692 21.1331 25.2922 21.1331H28.056C30.2556 21.1331 32.5296 22.0379 33.461 22.4532C33.5835 22.5066 33.7212 22.495 33.8327 22.4231C35.899 21.0682 39.0738 21.1285 39.2859 21.1331H42.1743C42.3995 21.1331 42.581 21.3257 42.5788 21.5647L42.557 37.9578C42.557 38.1944 42.3755 38.387 42.1525 38.387H34.7183C34.6046 38.387 34.4953 38.438 34.4187 38.5285L33.6972 39.3684ZM25.7601 37.4567H33.1068C33.2249 37.4567 33.3364 37.51 33.4129 37.6052C33.5726 37.8 33.8568 37.8024 34.0186 37.6121L34.0317 37.5982C34.1083 37.5077 34.2176 37.4567 34.3313 37.4567H41.6824L41.702 22.0588H39.2663C39.2313 22.0588 35.7744 21.9776 33.9705 23.4439L33.9552 23.4555C33.8349 23.5529 33.6709 23.5715 33.5332 23.5019L33.5157 23.4926C33.4785 23.474 30.647 22.0588 28.0538 22.0588H25.7601V37.4567Z" fill="#8A8A8A"/>
<path d="M33.583 22.8684H33.8829V38.2105H33.583V22.8684Z" fill="#8A8A8A"/>
<path d="M35.1511 25.476H40.7795V26.4087H35.1511V25.476ZM35.1511 29.0088H40.7795V29.9415H35.1511V29.0088ZM35.1511 32.9356H40.7795V33.8684H35.1511V32.9356ZM26.6865 25.4737H32.3149V26.4064H26.6865V25.4737ZM26.6865 29.0088H32.3149V29.9415H26.6865V29.0088ZM26.6865 32.9356H32.3149V33.8684H26.6865V32.9356Z" fill="#CDCDCD"/>
<path d="M34.6327 5.78946H30.7346L29.0854 11H34.1829L34.6327 5.78946Z" fill="#B58C54"/>
<path d="M35.982 10.7105L35.3823 5.87578L38.5308 5.73359L40.9296 10.1417L35.982 10.7105Z" fill="#B58C54"/>
<path d="M42.2789 4.77629L39.8801 5.35524L42.8786 10.1417L46.6267 9.28852L42.2789 4.77629Z" fill="#B58C54"/>
<path d="M44.6777 3.32892L42.8786 4.34208L48.2759 8.53945L51.1245 7.23682L44.6777 3.32892Z" fill="#B58C54"/>
<path d="M52.024 6.87117L45.1275 3.03945L45.2774 2.89471L52.4738 6.44457L52.024 6.87117Z" fill="#B58C54"/>
</svg>
